<mxfile host="app.diagrams.net" modified="2023-03-19T21:48:21.121Z" agent="5.0 (Macintosh; Intel Mac OS X 10_15_7) AppleWebKit/537.36 (KHTML, like Gecko) Chrome/105.0.0.0 Safari/537.36" etag="4xxn-rqcpF5cARZdkibA" version="20.8.23" type="github" pages="2">
  <diagram id="C5RBs43oDa-KdzZeNtuy" name="Page-1">
    <mxGraphModel dx="1694" dy="560" grid="0" gridSize="10" guides="1" tooltips="1" connect="1" arrows="1" fold="1" page="1" pageScale="1" pageWidth="827" pageHeight="1169" math="0" shadow="0">
      <root>
        <mxCell id="WIyWlLk6GJQsqaUBKTNV-0" />
        <mxCell id="WIyWlLk6GJQsqaUBKTNV-1" parent="WIyWlLk6GJQsqaUBKTNV-0" />
        <mxCell id="YsMizrw-BETvIfUopHLk-68" value="" style="edgeStyle=none;rounded=0;orthogonalLoop=1;jettySize=auto;html=1;fontSize=14;" parent="WIyWlLk6GJQsqaUBKTNV-1" source="WIyWlLk6GJQsqaUBKTNV-3" target="YsMizrw-BETvIfUopHLk-61" edge="1">
          <mxGeometry relative="1" as="geometry" />
        </mxCell>
        <mxCell id="WIyWlLk6GJQsqaUBKTNV-3" value="&lt;font style=&quot;font-size: 18px&quot;&gt;Home&lt;/font&gt;" style="rounded=1;whiteSpace=wrap;html=1;fontSize=12;glass=0;strokeWidth=1;shadow=0;" parent="WIyWlLk6GJQsqaUBKTNV-1" vertex="1">
          <mxGeometry x="-540" y="60" width="170" height="50" as="geometry" />
        </mxCell>
        <mxCell id="YsMizrw-BETvIfUopHLk-0" value="Teachers" style="rounded=0;whiteSpace=wrap;html=1;" parent="WIyWlLk6GJQsqaUBKTNV-1" vertex="1">
          <mxGeometry x="-660" y="120" width="120" height="60" as="geometry" />
        </mxCell>
        <mxCell id="YsMizrw-BETvIfUopHLk-4" value="" style="endArrow=none;html=1;rounded=0;" parent="WIyWlLk6GJQsqaUBKTNV-1" edge="1">
          <mxGeometry width="50" height="50" relative="1" as="geometry">
            <mxPoint x="-600.42" y="220" as="sourcePoint" />
            <mxPoint x="-600.42" y="180" as="targetPoint" />
            <Array as="points">
              <mxPoint x="-600.42" y="220" />
              <mxPoint x="-600.42" y="200" />
            </Array>
          </mxGeometry>
        </mxCell>
        <mxCell id="YsMizrw-BETvIfUopHLk-26" value="" style="edgeStyle=none;rounded=0;orthogonalLoop=1;jettySize=auto;html=1;" parent="WIyWlLk6GJQsqaUBKTNV-1" target="YsMizrw-BETvIfUopHLk-9" edge="1">
          <mxGeometry relative="1" as="geometry">
            <mxPoint x="-600.59" y="260" as="sourcePoint" />
          </mxGeometry>
        </mxCell>
        <mxCell id="YsMizrw-BETvIfUopHLk-5" value="Choose your course" style="rounded=0;whiteSpace=wrap;html=1;" parent="WIyWlLk6GJQsqaUBKTNV-1" vertex="1">
          <mxGeometry x="-640.59" y="220" width="80" height="40" as="geometry" />
        </mxCell>
        <mxCell id="YsMizrw-BETvIfUopHLk-6" value="&lt;p style=&quot;line-height: 1.2&quot;&gt;&lt;font style=&quot;font-size: 10px&quot;&gt;discipline&lt;/font&gt;&lt;br&gt;&lt;/p&gt;" style="whiteSpace=wrap;html=1;rounded=0;" parent="WIyWlLk6GJQsqaUBKTNV-1" vertex="1">
          <mxGeometry x="-550" y="317.82" width="50" height="18.12" as="geometry" />
        </mxCell>
        <mxCell id="YsMizrw-BETvIfUopHLk-22" value="" style="edgeStyle=none;shape=link;rounded=0;orthogonalLoop=1;jettySize=auto;html=1;" parent="WIyWlLk6GJQsqaUBKTNV-1" source="YsMizrw-BETvIfUopHLk-9" edge="1">
          <mxGeometry relative="1" as="geometry">
            <mxPoint x="-550.59" y="326.88" as="targetPoint" />
          </mxGeometry>
        </mxCell>
        <mxCell id="YsMizrw-BETvIfUopHLk-9" value="Discipline" style="whiteSpace=wrap;html=1;rounded=0;" parent="WIyWlLk6GJQsqaUBKTNV-1" vertex="1">
          <mxGeometry x="-630.59" y="309.38" width="60" height="35" as="geometry" />
        </mxCell>
        <mxCell id="YsMizrw-BETvIfUopHLk-40" value="" style="edgeStyle=none;rounded=0;orthogonalLoop=1;jettySize=auto;html=1;" parent="WIyWlLk6GJQsqaUBKTNV-1" source="YsMizrw-BETvIfUopHLk-16" target="YsMizrw-BETvIfUopHLk-39" edge="1">
          <mxGeometry relative="1" as="geometry" />
        </mxCell>
        <mxCell id="YsMizrw-BETvIfUopHLk-16" value="1 teacher" style="whiteSpace=wrap;html=1;rounded=0;" parent="WIyWlLk6GJQsqaUBKTNV-1" vertex="1">
          <mxGeometry x="-630.59" y="440" width="60" height="30" as="geometry" />
        </mxCell>
        <mxCell id="YsMizrw-BETvIfUopHLk-19" value="" style="edgeStyle=orthogonalEdgeStyle;rounded=0;orthogonalLoop=1;jettySize=auto;html=1;shape=link;" parent="WIyWlLk6GJQsqaUBKTNV-1" target="YsMizrw-BETvIfUopHLk-16" edge="1">
          <mxGeometry relative="1" as="geometry">
            <mxPoint x="-530.59" y="455" as="sourcePoint" />
          </mxGeometry>
        </mxCell>
        <mxCell id="YsMizrw-BETvIfUopHLk-18" value="2 teacher" style="whiteSpace=wrap;html=1;rounded=0;" parent="WIyWlLk6GJQsqaUBKTNV-1" vertex="1">
          <mxGeometry x="-530" y="440" width="60" height="30" as="geometry" />
        </mxCell>
        <mxCell id="YsMizrw-BETvIfUopHLk-21" value="" style="edgeStyle=orthogonalEdgeStyle;rounded=0;orthogonalLoop=1;jettySize=auto;html=1;shape=link;" parent="WIyWlLk6GJQsqaUBKTNV-1" target="YsMizrw-BETvIfUopHLk-16" edge="1">
          <mxGeometry relative="1" as="geometry">
            <mxPoint x="-670.59" y="455" as="sourcePoint" />
          </mxGeometry>
        </mxCell>
        <mxCell id="YsMizrw-BETvIfUopHLk-20" value="3 teacher" style="whiteSpace=wrap;html=1;rounded=0;" parent="WIyWlLk6GJQsqaUBKTNV-1" vertex="1">
          <mxGeometry x="-730" y="440" width="60" height="30" as="geometry" />
        </mxCell>
        <mxCell id="YsMizrw-BETvIfUopHLk-54" value="" style="edgeStyle=none;rounded=0;orthogonalLoop=1;jettySize=auto;html=1;fontSize=10;" parent="WIyWlLk6GJQsqaUBKTNV-1" source="YsMizrw-BETvIfUopHLk-14" target="YsMizrw-BETvIfUopHLk-16" edge="1">
          <mxGeometry relative="1" as="geometry" />
        </mxCell>
        <mxCell id="YsMizrw-BETvIfUopHLk-14" value="&lt;font style=&quot;font-size: 10px&quot;&gt;Choose your teacher&lt;/font&gt;" style="rounded=0;whiteSpace=wrap;html=1;" parent="WIyWlLk6GJQsqaUBKTNV-1" vertex="1">
          <mxGeometry x="-635.59" y="370" width="70" height="40" as="geometry" />
        </mxCell>
        <mxCell id="YsMizrw-BETvIfUopHLk-30" value="" style="endArrow=none;html=1;rounded=0;" parent="WIyWlLk6GJQsqaUBKTNV-1" edge="1">
          <mxGeometry width="50" height="50" relative="1" as="geometry">
            <mxPoint x="-600.59" y="350" as="sourcePoint" />
            <mxPoint x="-530.59" y="350" as="targetPoint" />
          </mxGeometry>
        </mxCell>
        <mxCell id="YsMizrw-BETvIfUopHLk-33" value="" style="endArrow=none;html=1;rounded=0;" parent="WIyWlLk6GJQsqaUBKTNV-1" edge="1">
          <mxGeometry width="50" height="50" relative="1" as="geometry">
            <mxPoint x="-530.59" y="350" as="sourcePoint" />
            <mxPoint x="-530.5899999999999" y="335.94" as="targetPoint" />
            <Array as="points">
              <mxPoint x="-530.59" y="350" />
              <mxPoint x="-530.5899999999999" y="340.94" />
            </Array>
          </mxGeometry>
        </mxCell>
        <mxCell id="YsMizrw-BETvIfUopHLk-38" value="" style="endArrow=none;html=1;rounded=0;" parent="WIyWlLk6GJQsqaUBKTNV-1" edge="1">
          <mxGeometry width="50" height="50" relative="1" as="geometry">
            <mxPoint x="-700" y="510" as="sourcePoint" />
            <mxPoint x="-699.9999999999997" y="470" as="targetPoint" />
            <Array as="points">
              <mxPoint x="-700" y="475" />
            </Array>
          </mxGeometry>
        </mxCell>
        <mxCell id="YsMizrw-BETvIfUopHLk-39" value="Take course" style="whiteSpace=wrap;html=1;rounded=0;" parent="WIyWlLk6GJQsqaUBKTNV-1" vertex="1">
          <mxGeometry x="-635.59" y="500" width="70" height="35" as="geometry" />
        </mxCell>
        <mxCell id="YsMizrw-BETvIfUopHLk-42" value="" style="endArrow=none;html=1;rounded=0;" parent="WIyWlLk6GJQsqaUBKTNV-1" edge="1">
          <mxGeometry width="50" height="50" relative="1" as="geometry">
            <mxPoint x="-500" y="510" as="sourcePoint" />
            <mxPoint x="-499.9999999999997" y="470" as="targetPoint" />
            <Array as="points">
              <mxPoint x="-500" y="475" />
            </Array>
          </mxGeometry>
        </mxCell>
        <mxCell id="YsMizrw-BETvIfUopHLk-45" value="&lt;p style=&quot;line-height: 1.2&quot;&gt;&lt;font style=&quot;font-size: 10px&quot;&gt;discipline&lt;/font&gt;&lt;br&gt;&lt;/p&gt;" style="whiteSpace=wrap;html=1;rounded=0;" parent="WIyWlLk6GJQsqaUBKTNV-1" vertex="1">
          <mxGeometry x="-700" y="317.82" width="50" height="18.12" as="geometry" />
        </mxCell>
        <mxCell id="YsMizrw-BETvIfUopHLk-47" value="" style="edgeStyle=none;shape=link;rounded=0;orthogonalLoop=1;jettySize=auto;html=1;" parent="WIyWlLk6GJQsqaUBKTNV-1" edge="1">
          <mxGeometry relative="1" as="geometry">
            <mxPoint x="-650.59" y="326.6799999999999" as="sourcePoint" />
            <mxPoint x="-630.59" y="326.6799999999999" as="targetPoint" />
          </mxGeometry>
        </mxCell>
        <mxCell id="YsMizrw-BETvIfUopHLk-49" value="" style="endArrow=none;html=1;rounded=0;" parent="WIyWlLk6GJQsqaUBKTNV-1" edge="1">
          <mxGeometry width="50" height="50" relative="1" as="geometry">
            <mxPoint x="-670.59" y="350" as="sourcePoint" />
            <mxPoint x="-600.59" y="350" as="targetPoint" />
            <Array as="points">
              <mxPoint x="-630.59" y="350" />
            </Array>
          </mxGeometry>
        </mxCell>
        <mxCell id="YsMizrw-BETvIfUopHLk-50" value="" style="endArrow=none;html=1;rounded=0;" parent="WIyWlLk6GJQsqaUBKTNV-1" edge="1">
          <mxGeometry width="50" height="50" relative="1" as="geometry">
            <mxPoint x="-670.59" y="350" as="sourcePoint" />
            <mxPoint x="-670.59" y="335.94000000000005" as="targetPoint" />
            <Array as="points">
              <mxPoint x="-670.59" y="350" />
              <mxPoint x="-670.5899999999999" y="340.94" />
            </Array>
          </mxGeometry>
        </mxCell>
        <mxCell id="YsMizrw-BETvIfUopHLk-51" value="" style="endArrow=none;html=1;rounded=0;fontSize=10;" parent="WIyWlLk6GJQsqaUBKTNV-1" edge="1">
          <mxGeometry width="50" height="50" relative="1" as="geometry">
            <mxPoint x="-600.76" y="370" as="sourcePoint" />
            <mxPoint x="-600.76" y="350" as="targetPoint" />
          </mxGeometry>
        </mxCell>
        <mxCell id="YsMizrw-BETvIfUopHLk-55" value="" style="endArrow=none;html=1;rounded=0;fontSize=10;" parent="WIyWlLk6GJQsqaUBKTNV-1" edge="1">
          <mxGeometry width="50" height="50" relative="1" as="geometry">
            <mxPoint x="-565" y="510" as="sourcePoint" />
            <mxPoint x="-500" y="510" as="targetPoint" />
          </mxGeometry>
        </mxCell>
        <mxCell id="YsMizrw-BETvIfUopHLk-56" value="" style="endArrow=none;html=1;rounded=0;fontSize=10;" parent="WIyWlLk6GJQsqaUBKTNV-1" edge="1">
          <mxGeometry width="50" height="50" relative="1" as="geometry">
            <mxPoint x="-700.59" y="510" as="sourcePoint" />
            <mxPoint x="-635.59" y="510" as="targetPoint" />
          </mxGeometry>
        </mxCell>
        <mxCell id="YsMizrw-BETvIfUopHLk-61" value="&lt;font style=&quot;line-height: 1.2 ; font-size: 14px&quot;&gt;About us&lt;/font&gt;" style="rounded=0;whiteSpace=wrap;html=1;fontSize=18;" parent="WIyWlLk6GJQsqaUBKTNV-1" vertex="1">
          <mxGeometry x="-490" y="150" width="70" height="30" as="geometry" />
        </mxCell>
        <mxCell id="YsMizrw-BETvIfUopHLk-72" value="&lt;font style=&quot;font-size: 8px&quot;&gt;Projects&lt;br style=&quot;font-size: 8px&quot;&gt;Goals&lt;br style=&quot;font-size: 8px&quot;&gt;Who we are&lt;br&gt;Contact us&lt;br&gt;(phone number, email, message)&lt;br style=&quot;font-size: 8px&quot;&gt;&lt;/font&gt;" style="text;html=1;align=center;verticalAlign=middle;resizable=0;points=[];autosize=1;strokeColor=none;fillColor=none;fontSize=8;strokeWidth=0;labelBorderColor=none;fontStyle=1" parent="WIyWlLk6GJQsqaUBKTNV-1" vertex="1">
          <mxGeometry x="-525" y="180" width="140" height="60" as="geometry" />
        </mxCell>
        <mxCell id="YsMizrw-BETvIfUopHLk-95" value="" style="edgeStyle=none;rounded=0;orthogonalLoop=1;jettySize=auto;html=1;fontSize=8;" parent="WIyWlLk6GJQsqaUBKTNV-1" source="YsMizrw-BETvIfUopHLk-81" target="YsMizrw-BETvIfUopHLk-94" edge="1">
          <mxGeometry relative="1" as="geometry" />
        </mxCell>
        <mxCell id="YsMizrw-BETvIfUopHLk-81" value="My courses" style="rounded=0;whiteSpace=wrap;html=1;" parent="WIyWlLk6GJQsqaUBKTNV-1" vertex="1">
          <mxGeometry x="-360" y="120" width="120" height="60" as="geometry" />
        </mxCell>
        <mxCell id="YsMizrw-BETvIfUopHLk-86" value="" style="endArrow=none;html=1;rounded=0;fontSize=8;" parent="WIyWlLk6GJQsqaUBKTNV-1" edge="1">
          <mxGeometry width="50" height="50" relative="1" as="geometry">
            <mxPoint x="-600" y="90" as="sourcePoint" />
            <mxPoint x="-540" y="90" as="targetPoint" />
          </mxGeometry>
        </mxCell>
        <mxCell id="YsMizrw-BETvIfUopHLk-88" value="" style="endArrow=classic;html=1;rounded=0;fontSize=8;" parent="WIyWlLk6GJQsqaUBKTNV-1" edge="1">
          <mxGeometry width="50" height="50" relative="1" as="geometry">
            <mxPoint x="-600" y="90" as="sourcePoint" />
            <mxPoint x="-600" y="120" as="targetPoint" />
          </mxGeometry>
        </mxCell>
        <mxCell id="YsMizrw-BETvIfUopHLk-89" value="" style="endArrow=none;html=1;rounded=0;fontSize=8;" parent="WIyWlLk6GJQsqaUBKTNV-1" edge="1">
          <mxGeometry width="50" height="50" relative="1" as="geometry">
            <mxPoint x="-370" y="90" as="sourcePoint" />
            <mxPoint x="-310" y="90" as="targetPoint" />
          </mxGeometry>
        </mxCell>
        <mxCell id="YsMizrw-BETvIfUopHLk-90" value="" style="endArrow=classic;html=1;rounded=0;fontSize=8;" parent="WIyWlLk6GJQsqaUBKTNV-1" edge="1">
          <mxGeometry width="50" height="50" relative="1" as="geometry">
            <mxPoint x="-310" y="90" as="sourcePoint" />
            <mxPoint x="-310" y="120" as="targetPoint" />
          </mxGeometry>
        </mxCell>
        <mxCell id="YsMizrw-BETvIfUopHLk-94" value="Have an account?" style="rhombus;whiteSpace=wrap;html=1;rounded=0;" parent="WIyWlLk6GJQsqaUBKTNV-1" vertex="1">
          <mxGeometry x="-340" y="220" width="80" height="80" as="geometry" />
        </mxCell>
        <mxCell id="YsMizrw-BETvIfUopHLk-96" value="" style="endArrow=none;html=1;rounded=0;fontSize=8;" parent="WIyWlLk6GJQsqaUBKTNV-1" edge="1">
          <mxGeometry width="50" height="50" relative="1" as="geometry">
            <mxPoint x="-380" y="260" as="sourcePoint" />
            <mxPoint x="-340" y="259.65999999999997" as="targetPoint" />
          </mxGeometry>
        </mxCell>
        <mxCell id="YsMizrw-BETvIfUopHLk-97" value="&lt;font style=&quot;font-size: 10px&quot;&gt;&lt;b&gt;No&lt;/b&gt;&lt;/font&gt;" style="text;html=1;align=center;verticalAlign=middle;resizable=0;points=[];autosize=1;strokeColor=none;fillColor=none;fontSize=8;" parent="WIyWlLk6GJQsqaUBKTNV-1" vertex="1">
          <mxGeometry x="-370" y="240" width="30" height="20" as="geometry" />
        </mxCell>
        <mxCell id="YsMizrw-BETvIfUopHLk-98" value="" style="endArrow=none;html=1;rounded=0;fontSize=10;" parent="WIyWlLk6GJQsqaUBKTNV-1" edge="1">
          <mxGeometry width="50" height="50" relative="1" as="geometry">
            <mxPoint x="-380" y="290" as="sourcePoint" />
            <mxPoint x="-380" y="260" as="targetPoint" />
          </mxGeometry>
        </mxCell>
        <mxCell id="YsMizrw-BETvIfUopHLk-100" value="Sign up&lt;br&gt;form" style="whiteSpace=wrap;html=1;rounded=0;" parent="WIyWlLk6GJQsqaUBKTNV-1" vertex="1">
          <mxGeometry x="-410" y="290" width="60" height="35" as="geometry" />
        </mxCell>
        <mxCell id="YsMizrw-BETvIfUopHLk-102" value="" style="endArrow=none;html=1;rounded=0;fontSize=8;" parent="WIyWlLk6GJQsqaUBKTNV-1" edge="1">
          <mxGeometry width="50" height="50" relative="1" as="geometry">
            <mxPoint x="-260" y="260.1" as="sourcePoint" />
            <mxPoint x="-220" y="259.76" as="targetPoint" />
          </mxGeometry>
        </mxCell>
        <mxCell id="YsMizrw-BETvIfUopHLk-104" value="" style="endArrow=none;html=1;rounded=0;fontSize=10;" parent="WIyWlLk6GJQsqaUBKTNV-1" edge="1">
          <mxGeometry width="50" height="50" relative="1" as="geometry">
            <mxPoint x="-220" y="350" as="sourcePoint" />
            <mxPoint x="-220" y="260" as="targetPoint" />
          </mxGeometry>
        </mxCell>
        <mxCell id="YsMizrw-BETvIfUopHLk-105" value="" style="endArrow=none;html=1;rounded=0;fontSize=10;" parent="WIyWlLk6GJQsqaUBKTNV-1" edge="1">
          <mxGeometry width="50" height="50" relative="1" as="geometry">
            <mxPoint x="-220" y="309" as="sourcePoint" />
            <mxPoint x="-350" y="309.38" as="targetPoint" />
          </mxGeometry>
        </mxCell>
        <mxCell id="YsMizrw-BETvIfUopHLk-106" value="" style="endArrow=none;html=1;rounded=0;fontSize=10;" parent="WIyWlLk6GJQsqaUBKTNV-1" edge="1">
          <mxGeometry width="50" height="50" relative="1" as="geometry">
            <mxPoint x="-280" y="350.06" as="sourcePoint" />
            <mxPoint x="-220" y="350" as="targetPoint" />
          </mxGeometry>
        </mxCell>
        <mxCell id="YsMizrw-BETvIfUopHLk-107" value="&lt;font style=&quot;font-size: 7px&quot;&gt;&lt;b&gt;Have a teacher?&lt;/b&gt;&lt;/font&gt;" style="rhombus;whiteSpace=wrap;html=1;rounded=0;fontSize=7;" parent="WIyWlLk6GJQsqaUBKTNV-1" vertex="1">
          <mxGeometry x="-325" y="325" width="50" height="50.62" as="geometry" />
        </mxCell>
        <mxCell id="YsMizrw-BETvIfUopHLk-108" value="" style="endArrow=none;html=1;rounded=0;fontSize=7;" parent="WIyWlLk6GJQsqaUBKTNV-1" edge="1">
          <mxGeometry width="50" height="50" relative="1" as="geometry">
            <mxPoint x="-320" y="400" as="sourcePoint" />
            <mxPoint x="-300" y="375.62" as="targetPoint" />
          </mxGeometry>
        </mxCell>
        <mxCell id="YsMizrw-BETvIfUopHLk-113" value="" style="endArrow=none;html=1;rounded=0;fontSize=7;" parent="WIyWlLk6GJQsqaUBKTNV-1" edge="1">
          <mxGeometry width="50" height="50" relative="1" as="geometry">
            <mxPoint x="-280" y="400" as="sourcePoint" />
            <mxPoint x="-299.9999999999998" y="375.62" as="targetPoint" />
          </mxGeometry>
        </mxCell>
        <mxCell id="YsMizrw-BETvIfUopHLk-116" value="&lt;b&gt;No&lt;/b&gt;" style="text;html=1;align=center;verticalAlign=middle;resizable=0;points=[];autosize=1;strokeColor=none;fillColor=none;fontSize=7;" parent="WIyWlLk6GJQsqaUBKTNV-1" vertex="1">
          <mxGeometry x="-335" y="375.62" width="30" height="10" as="geometry" />
        </mxCell>
        <mxCell id="YsMizrw-BETvIfUopHLk-117" value="&lt;b&gt;Yes&lt;/b&gt;" style="text;html=1;align=center;verticalAlign=middle;resizable=0;points=[];autosize=1;strokeColor=none;fillColor=none;fontSize=7;" parent="WIyWlLk6GJQsqaUBKTNV-1" vertex="1">
          <mxGeometry x="-291" y="375.62" width="30" height="10" as="geometry" />
        </mxCell>
        <mxCell id="YsMizrw-BETvIfUopHLk-123" value="" style="edgeStyle=none;rounded=0;orthogonalLoop=1;jettySize=auto;html=1;fontSize=6;" parent="WIyWlLk6GJQsqaUBKTNV-1" source="YsMizrw-BETvIfUopHLk-118" target="YsMizrw-BETvIfUopHLk-119" edge="1">
          <mxGeometry relative="1" as="geometry" />
        </mxCell>
        <mxCell id="YsMizrw-BETvIfUopHLk-118" value="&lt;p style=&quot;line-height: 1.2 ; font-size: 6px&quot;&gt;&lt;span style=&quot;font-size: 6px&quot;&gt;&lt;b&gt;Teacher&#39;s page&lt;/b&gt;&lt;/span&gt;&lt;/p&gt;" style="whiteSpace=wrap;html=1;rounded=0;fontSize=6;" parent="WIyWlLk6GJQsqaUBKTNV-1" vertex="1">
          <mxGeometry x="-335" y="400" width="30" height="20" as="geometry" />
        </mxCell>
        <mxCell id="YsMizrw-BETvIfUopHLk-119" value="&lt;p style=&quot;line-height: 1.2 ; font-size: 6px&quot;&gt;&lt;b&gt;Course list&lt;/b&gt;&lt;/p&gt;" style="whiteSpace=wrap;html=1;rounded=0;fontSize=6;" parent="WIyWlLk6GJQsqaUBKTNV-1" vertex="1">
          <mxGeometry x="-291" y="400" width="30" height="20" as="geometry" />
        </mxCell>
        <mxCell id="YsMizrw-BETvIfUopHLk-124" value="" style="endArrow=none;html=1;rounded=0;fontSize=6;" parent="WIyWlLk6GJQsqaUBKTNV-1" edge="1">
          <mxGeometry width="50" height="50" relative="1" as="geometry">
            <mxPoint x="-370" y="70" as="sourcePoint" />
            <mxPoint x="-170" y="70" as="targetPoint" />
          </mxGeometry>
        </mxCell>
        <mxCell id="YsMizrw-BETvIfUopHLk-126" value="" style="endArrow=classic;html=1;rounded=0;fontSize=6;" parent="WIyWlLk6GJQsqaUBKTNV-1" edge="1">
          <mxGeometry width="50" height="50" relative="1" as="geometry">
            <mxPoint x="-170" y="70" as="sourcePoint" />
            <mxPoint x="-170" y="120" as="targetPoint" />
          </mxGeometry>
        </mxCell>
        <mxCell id="YsMizrw-BETvIfUopHLk-127" value="" style="triangle;whiteSpace=wrap;html=1;labelBorderColor=none;fontSize=6;strokeWidth=1;verticalAlign=middle;direction=south;" parent="WIyWlLk6GJQsqaUBKTNV-1" vertex="1">
          <mxGeometry x="-195" y="190" width="50" height="40" as="geometry" />
        </mxCell>
        <mxCell id="YsMizrw-BETvIfUopHLk-128" value="Account" style="rounded=0;whiteSpace=wrap;html=1;labelBorderColor=none;fontSize=14;strokeWidth=1;" parent="WIyWlLk6GJQsqaUBKTNV-1" vertex="1">
          <mxGeometry x="-210" y="120" width="80" height="40" as="geometry" />
        </mxCell>
        <mxCell id="YsMizrw-BETvIfUopHLk-129" value="" style="endArrow=none;html=1;rounded=0;fontSize=14;entryX=0.5;entryY=1;entryDx=0;entryDy=0;startArrow=none;" parent="WIyWlLk6GJQsqaUBKTNV-1" source="YsMizrw-BETvIfUopHLk-130" target="YsMizrw-BETvIfUopHLk-128" edge="1">
          <mxGeometry width="50" height="50" relative="1" as="geometry">
            <mxPoint x="-220" y="230" as="sourcePoint" />
            <mxPoint x="-170" y="180" as="targetPoint" />
          </mxGeometry>
        </mxCell>
        <mxCell id="YsMizrw-BETvIfUopHLk-130" value="&lt;font style=&quot;font-size: 8px&quot;&gt;Have an account?&lt;/font&gt;" style="text;html=1;align=center;verticalAlign=middle;resizable=0;points=[];autosize=1;strokeColor=none;fillColor=none;fontSize=9;" parent="WIyWlLk6GJQsqaUBKTNV-1" vertex="1">
          <mxGeometry x="-210" y="160" width="80" height="20" as="geometry" />
        </mxCell>
        <mxCell id="YsMizrw-BETvIfUopHLk-131" value="" style="endArrow=none;html=1;rounded=0;fontSize=14;entryX=0.5;entryY=1;entryDx=0;entryDy=0;" parent="WIyWlLk6GJQsqaUBKTNV-1" source="YsMizrw-BETvIfUopHLk-127" target="YsMizrw-BETvIfUopHLk-130" edge="1">
          <mxGeometry width="50" height="50" relative="1" as="geometry">
            <mxPoint x="-170" y="190" as="sourcePoint" />
            <mxPoint x="-170" y="160" as="targetPoint" />
          </mxGeometry>
        </mxCell>
        <mxCell id="YsMizrw-BETvIfUopHLk-132" value="" style="endArrow=none;html=1;rounded=0;fontSize=8;" parent="WIyWlLk6GJQsqaUBKTNV-1" edge="1">
          <mxGeometry width="50" height="50" relative="1" as="geometry">
            <mxPoint x="-230" y="200" as="sourcePoint" />
            <mxPoint x="-189" y="199.82999999999998" as="targetPoint" />
          </mxGeometry>
        </mxCell>
        <mxCell id="YsMizrw-BETvIfUopHLk-134" value="No" style="text;html=1;align=center;verticalAlign=middle;resizable=0;points=[];autosize=1;strokeColor=none;fillColor=none;fontSize=8;fontStyle=1" parent="WIyWlLk6GJQsqaUBKTNV-1" vertex="1">
          <mxGeometry x="-230" y="180" width="30" height="20" as="geometry" />
        </mxCell>
        <mxCell id="YsMizrw-BETvIfUopHLk-137" value="" style="endArrow=none;html=1;rounded=0;fontSize=8;entryX=0.5;entryY=0;entryDx=0;entryDy=0;" parent="WIyWlLk6GJQsqaUBKTNV-1" target="YsMizrw-BETvIfUopHLk-138" edge="1">
          <mxGeometry width="50" height="50" relative="1" as="geometry">
            <mxPoint x="-230" y="200" as="sourcePoint" />
            <mxPoint x="-210" y="220" as="targetPoint" />
          </mxGeometry>
        </mxCell>
        <mxCell id="YsMizrw-BETvIfUopHLk-138" value="Sign up form" style="rounded=0;whiteSpace=wrap;html=1;labelBorderColor=none;fontSize=7;strokeWidth=1;" parent="WIyWlLk6GJQsqaUBKTNV-1" vertex="1">
          <mxGeometry x="-220" y="230" width="30" height="20" as="geometry" />
        </mxCell>
        <mxCell id="YsMizrw-BETvIfUopHLk-139" value="" style="endArrow=none;html=1;rounded=0;fontSize=7;exitX=0.245;exitY=0.121;exitDx=0;exitDy=0;exitPerimeter=0;" parent="WIyWlLk6GJQsqaUBKTNV-1" source="YsMizrw-BETvIfUopHLk-127" edge="1">
          <mxGeometry width="50" height="50" relative="1" as="geometry">
            <mxPoint x="-150" y="199.91" as="sourcePoint" />
            <mxPoint x="-110" y="199.91" as="targetPoint" />
          </mxGeometry>
        </mxCell>
        <mxCell id="YsMizrw-BETvIfUopHLk-103" value="&lt;span style=&quot;font-size: 10px&quot;&gt;Yes&lt;/span&gt;" style="text;html=1;align=center;verticalAlign=middle;resizable=0;points=[];autosize=1;strokeColor=none;fillColor=none;fontSize=8;fontStyle=1" parent="WIyWlLk6GJQsqaUBKTNV-1" vertex="1">
          <mxGeometry x="-261" y="240" width="30" height="20" as="geometry" />
        </mxCell>
        <mxCell id="YsMizrw-BETvIfUopHLk-141" value="" style="endArrow=none;html=1;rounded=0;fontSize=7;" parent="WIyWlLk6GJQsqaUBKTNV-1" target="YsMizrw-BETvIfUopHLk-103" edge="1">
          <mxGeometry width="50" height="50" relative="1" as="geometry">
            <mxPoint x="-240" y="260" as="sourcePoint" />
            <mxPoint x="-190" y="210" as="targetPoint" />
          </mxGeometry>
        </mxCell>
        <mxCell id="YsMizrw-BETvIfUopHLk-142" value="" style="endArrow=none;html=1;rounded=0;fontSize=7;" parent="WIyWlLk6GJQsqaUBKTNV-1" edge="1">
          <mxGeometry width="50" height="50" relative="1" as="geometry">
            <mxPoint x="-110" y="270" as="sourcePoint" />
            <mxPoint x="-110" y="200" as="targetPoint" />
          </mxGeometry>
        </mxCell>
        <mxCell id="YsMizrw-BETvIfUopHLk-143" value="Yes" style="text;html=1;align=center;verticalAlign=middle;resizable=0;points=[];autosize=1;strokeColor=none;fillColor=none;fontSize=8;fontStyle=1" parent="WIyWlLk6GJQsqaUBKTNV-1" vertex="1">
          <mxGeometry x="-140" y="180" width="30" height="20" as="geometry" />
        </mxCell>
        <mxCell id="YsMizrw-BETvIfUopHLk-144" value="" style="endArrow=none;html=1;rounded=0;fontSize=7;" parent="WIyWlLk6GJQsqaUBKTNV-1" edge="1">
          <mxGeometry width="50" height="50" relative="1" as="geometry">
            <mxPoint x="-190" y="240" as="sourcePoint" />
            <mxPoint x="-110" y="240" as="targetPoint" />
          </mxGeometry>
        </mxCell>
        <mxCell id="YsMizrw-BETvIfUopHLk-145" value="" style="endArrow=none;html=1;rounded=0;fontSize=7;" parent="WIyWlLk6GJQsqaUBKTNV-1" edge="1">
          <mxGeometry width="50" height="50" relative="1" as="geometry">
            <mxPoint x="-150" y="270" as="sourcePoint" />
            <mxPoint x="-110" y="270" as="targetPoint" />
          </mxGeometry>
        </mxCell>
        <mxCell id="YsMizrw-BETvIfUopHLk-146" value="Access to all features" style="rounded=0;whiteSpace=wrap;html=1;labelBorderColor=none;fontSize=5;strokeWidth=1;fontStyle=1" parent="WIyWlLk6GJQsqaUBKTNV-1" vertex="1">
          <mxGeometry x="-175" y="260" width="30" height="20" as="geometry" />
        </mxCell>
      </root>
    </mxGraphModel>
  </diagram>
  <diagram id="1VKIlKKvxSbjm1DkVsxo" name="Страница 2">
    <mxGraphModel dx="1735" dy="1120" grid="0" gridSize="10" guides="1" tooltips="1" connect="1" arrows="1" fold="1" page="1" pageScale="1" pageWidth="2336" pageHeight="1654" math="0" shadow="0">
      <root>
        <mxCell id="0" />
        <mxCell id="1" parent="0" />
        <mxCell id="0bNsCw8zncsb32AjO11a-1" value="&lt;font style=&quot;font-size: 9px;&quot;&gt;Core Switch&lt;/font&gt;" style="html=1;fillColor=#fff2cc;strokeColor=#d6b656;strokeWidth=1;" vertex="1" parent="1">
          <mxGeometry x="542.5" y="198" width="62" height="33" as="geometry" />
        </mxCell>
        <mxCell id="0bNsCw8zncsb32AjO11a-4" value="&lt;font style=&quot;font-size: 9px;&quot;&gt;ISP2&lt;/font&gt;" style="ellipse;whiteSpace=wrap;html=1;fillColor=#d5e8d4;strokeColor=#82b366;strokeWidth=1;" vertex="1" parent="1">
          <mxGeometry x="544" y="130" width="59" height="33" as="geometry" />
        </mxCell>
        <mxCell id="0bNsCw8zncsb32AjO11a-7" value="" style="endArrow=none;html=1;rounded=0;entryX=0.5;entryY=1;entryDx=0;entryDy=0;exitX=0.5;exitY=0;exitDx=0;exitDy=0;startArrow=classic;startFill=1;endFill=0;strokeWidth=1;" edge="1" parent="1" source="0bNsCw8zncsb32AjO11a-1" target="0bNsCw8zncsb32AjO11a-4">
          <mxGeometry width="50" height="50" relative="1" as="geometry">
            <mxPoint x="580" y="261" as="sourcePoint" />
            <mxPoint x="552" y="235" as="targetPoint" />
          </mxGeometry>
        </mxCell>
        <mxCell id="0bNsCw8zncsb32AjO11a-10" value="&lt;font style=&quot;font-size: 9px;&quot;&gt;There can be different internet service providers, e.g., SK Telecom, KT, LG U+&lt;/font&gt;" style="text;html=1;strokeColor=none;fillColor=none;align=center;verticalAlign=middle;whiteSpace=wrap;rounded=0;strokeWidth=1;" vertex="1" parent="1">
          <mxGeometry x="575" y="91" width="176" height="19" as="geometry" />
        </mxCell>
        <mxCell id="0bNsCw8zncsb32AjO11a-11" value="&lt;font style=&quot;font-size: 9px;&quot;&gt;Internet&lt;/font&gt;" style="ellipse;whiteSpace=wrap;html=1;fillColor=#dae8fc;strokeColor=#6c8ebf;strokeWidth=1;" vertex="1" parent="1">
          <mxGeometry x="541" y="49" width="65" height="38" as="geometry" />
        </mxCell>
        <mxCell id="0bNsCw8zncsb32AjO11a-14" value="" style="endArrow=none;html=1;rounded=0;entryX=0.5;entryY=1;entryDx=0;entryDy=0;exitX=0.5;exitY=0;exitDx=0;exitDy=0;startArrow=classic;startFill=1;endFill=0;strokeWidth=1;" edge="1" parent="1" source="0bNsCw8zncsb32AjO11a-4" target="0bNsCw8zncsb32AjO11a-11">
          <mxGeometry width="50" height="50" relative="1" as="geometry">
            <mxPoint x="572" y="169" as="sourcePoint" />
            <mxPoint x="571" y="136" as="targetPoint" />
          </mxGeometry>
        </mxCell>
        <mxCell id="0bNsCw8zncsb32AjO11a-16" value="" style="endArrow=none;html=1;rounded=0;exitX=0.5;exitY=0;exitDx=0;exitDy=0;startArrow=classic;startFill=1;endFill=0;strokeWidth=1;entryX=0.5;entryY=1;entryDx=0;entryDy=0;" edge="1" parent="1" source="0bNsCw8zncsb32AjO11a-17" target="0bNsCw8zncsb32AjO11a-1">
          <mxGeometry width="50" height="50" relative="1" as="geometry">
            <mxPoint x="572" y="341" as="sourcePoint" />
            <mxPoint x="572" y="241" as="targetPoint" />
          </mxGeometry>
        </mxCell>
        <mxCell id="0bNsCw8zncsb32AjO11a-17" value="&lt;font style=&quot;font-size: 8px;&quot;&gt;Distribution Campus Network&lt;/font&gt;" style="html=1;fontSize=9;strokeWidth=1;" vertex="1" parent="1">
          <mxGeometry x="519" y="262" width="109" height="31" as="geometry" />
        </mxCell>
        <mxCell id="0bNsCw8zncsb32AjO11a-19" value="&lt;font style=&quot;font-size: 9px;&quot;&gt;7+ campus networks&lt;/font&gt;" style="text;html=1;strokeColor=none;fillColor=none;align=center;verticalAlign=middle;whiteSpace=wrap;rounded=0;strokeWidth=1;" vertex="1" parent="1">
          <mxGeometry x="588" y="268" width="176" height="19" as="geometry" />
        </mxCell>
        <mxCell id="0bNsCw8zncsb32AjO11a-20" value="" style="endArrow=none;html=1;rounded=0;entryX=0.5;entryY=1;entryDx=0;entryDy=0;exitX=0.5;exitY=0;exitDx=0;exitDy=0;startArrow=classic;startFill=1;endFill=0;strokeWidth=1;" edge="1" parent="1" source="0bNsCw8zncsb32AjO11a-21" target="0bNsCw8zncsb32AjO11a-17">
          <mxGeometry width="50" height="50" relative="1" as="geometry">
            <mxPoint x="574" y="409" as="sourcePoint" />
            <mxPoint x="574" y="372" as="targetPoint" />
          </mxGeometry>
        </mxCell>
        <mxCell id="0bNsCw8zncsb32AjO11a-21" value="" style="ellipse;whiteSpace=wrap;html=1;aspect=fixed;fontSize=8;strokeWidth=1;fillColor=#fad7ac;strokeColor=#b46504;" vertex="1" parent="1">
          <mxGeometry x="544" y="320" width="59" height="59" as="geometry" />
        </mxCell>
        <mxCell id="0bNsCw8zncsb32AjO11a-22" value="Distribution Switch" style="text;html=1;strokeColor=none;fillColor=none;align=center;verticalAlign=middle;whiteSpace=wrap;rounded=0;fontSize=8;strokeWidth=1;" vertex="1" parent="1">
          <mxGeometry x="543.5" y="336" width="60" height="30" as="geometry" />
        </mxCell>
        <mxCell id="0bNsCw8zncsb32AjO11a-26" value="" style="endArrow=none;html=1;rounded=0;entryX=0.082;entryY=0.955;entryDx=0;entryDy=0;exitX=0.633;exitY=0.046;exitDx=0;exitDy=0;startArrow=classic;startFill=1;endFill=0;exitPerimeter=0;entryPerimeter=0;strokeWidth=1;" edge="1" parent="1" source="0bNsCw8zncsb32AjO11a-126" target="0bNsCw8zncsb32AjO11a-22">
          <mxGeometry width="50" height="50" relative="1" as="geometry">
            <mxPoint x="495.592" y="468.32399999999996" as="sourcePoint" />
            <mxPoint x="539" y="457" as="targetPoint" />
          </mxGeometry>
        </mxCell>
        <mxCell id="0bNsCw8zncsb32AjO11a-32" value="&lt;font style=&quot;font-size: 9px;&quot;&gt;IT Buildiing 1&lt;/font&gt;" style="text;html=1;strokeColor=none;fillColor=none;align=center;verticalAlign=middle;whiteSpace=wrap;rounded=0;fontSize=8;strokeWidth=1;" vertex="1" parent="1">
          <mxGeometry x="545.5" y="495" width="56" height="8" as="geometry" />
        </mxCell>
        <mxCell id="0bNsCw8zncsb32AjO11a-118" value="&lt;font style=&quot;font-size: 9px;&quot;&gt;IT Buildiing 3&lt;/font&gt;" style="text;html=1;strokeColor=none;fillColor=none;align=center;verticalAlign=middle;whiteSpace=wrap;rounded=0;fontSize=8;strokeWidth=1;" vertex="1" parent="1">
          <mxGeometry x="628" y="514" width="56" height="8" as="geometry" />
        </mxCell>
        <mxCell id="0bNsCw8zncsb32AjO11a-119" value="" style="endArrow=none;html=1;rounded=0;entryX=0.5;entryY=1;entryDx=0;entryDy=0;exitX=0.5;exitY=0;exitDx=0;exitDy=0;startArrow=classic;startFill=1;endFill=0;exitPerimeter=0;strokeWidth=1;" edge="1" parent="1" source="0bNsCw8zncsb32AjO11a-125" target="0bNsCw8zncsb32AjO11a-21">
          <mxGeometry width="50" height="50" relative="1" as="geometry">
            <mxPoint x="564.5999999999999" y="519.988" as="sourcePoint" />
            <mxPoint x="560" y="462" as="targetPoint" />
          </mxGeometry>
        </mxCell>
        <mxCell id="0bNsCw8zncsb32AjO11a-120" value="" style="endArrow=none;html=1;rounded=0;entryX=0.939;entryY=0.723;entryDx=0;entryDy=0;exitX=0.346;exitY=0.016;exitDx=0;exitDy=0;startArrow=classic;startFill=1;endFill=0;exitPerimeter=0;entryPerimeter=0;strokeWidth=1;" edge="1" parent="1" source="0bNsCw8zncsb32AjO11a-127" target="0bNsCw8zncsb32AjO11a-21">
          <mxGeometry width="50" height="50" relative="1" as="geometry">
            <mxPoint x="647.9840000000002" y="469.77099999999996" as="sourcePoint" />
            <mxPoint x="585" y="478" as="targetPoint" />
          </mxGeometry>
        </mxCell>
        <mxCell id="0bNsCw8zncsb32AjO11a-122" value="&lt;font style=&quot;font-size: 9px;&quot;&gt;ISP1&lt;/font&gt;" style="ellipse;whiteSpace=wrap;html=1;fillColor=#d5e8d4;strokeColor=#82b366;strokeWidth=1;" vertex="1" parent="1">
          <mxGeometry x="463" y="161" width="59" height="33" as="geometry" />
        </mxCell>
        <mxCell id="0bNsCw8zncsb32AjO11a-123" value="&lt;font style=&quot;font-size: 9px;&quot;&gt;ISP3&lt;/font&gt;" style="ellipse;whiteSpace=wrap;html=1;fillColor=#d5e8d4;strokeColor=#82b366;strokeWidth=1;" vertex="1" parent="1">
          <mxGeometry x="619" y="161" width="59" height="33" as="geometry" />
        </mxCell>
        <mxCell id="0bNsCw8zncsb32AjO11a-125" value="" style="html=1;shape=mxgraph.basic.isocube;isoAngle=15;fontSize=8;strokeWidth=1;fillColor=#f5f5f5;fontColor=#333333;strokeColor=#666666;" vertex="1" parent="1">
          <mxGeometry x="551" y="414" width="45" height="72" as="geometry" />
        </mxCell>
        <mxCell id="0bNsCw8zncsb32AjO11a-126" value="" style="html=1;shape=mxgraph.basic.isocube;isoAngle=15;fontSize=8;strokeWidth=1;fillColor=#f5f5f5;fontColor=#333333;strokeColor=#666666;" vertex="1" parent="1">
          <mxGeometry x="458" y="431" width="45" height="72" as="geometry" />
        </mxCell>
        <mxCell id="0bNsCw8zncsb32AjO11a-127" value="" style="html=1;shape=mxgraph.basic.isocube;isoAngle=15;fontSize=8;strokeWidth=1;fillColor=#f5f5f5;fontColor=#333333;strokeColor=#666666;" vertex="1" parent="1">
          <mxGeometry x="633" y="437" width="45" height="72" as="geometry" />
        </mxCell>
        <mxCell id="0bNsCw8zncsb32AjO11a-128" value="&lt;font style=&quot;font-size: 9px;&quot;&gt;IT Buildiing 2&lt;/font&gt;" style="text;html=1;strokeColor=none;fillColor=none;align=center;verticalAlign=middle;whiteSpace=wrap;rounded=0;fontSize=8;strokeWidth=1;" vertex="1" parent="1">
          <mxGeometry x="452.5" y="506" width="56" height="8" as="geometry" />
        </mxCell>
        <mxCell id="0bNsCw8zncsb32AjO11a-131" value="" style="endArrow=none;html=1;rounded=0;entryX=0.5;entryY=1;entryDx=0;entryDy=0;startArrow=classic;startFill=1;endFill=0;strokeWidth=1;exitX=0.5;exitY=0;exitDx=0;exitDy=0;" edge="1" parent="1" source="0bNsCw8zncsb32AjO11a-133" target="0bNsCw8zncsb32AjO11a-128">
          <mxGeometry width="50" height="50" relative="1" as="geometry">
            <mxPoint x="483" y="537" as="sourcePoint" />
            <mxPoint x="558" y="375" as="targetPoint" />
          </mxGeometry>
        </mxCell>
        <mxCell id="0bNsCw8zncsb32AjO11a-133" value="Router&lt;br&gt;" style="ellipse;whiteSpace=wrap;html=1;strokeWidth=1;fontSize=9;fillColor=#b1ddf0;strokeColor=#10739e;" vertex="1" parent="1">
          <mxGeometry x="451.5" y="537" width="58" height="31" as="geometry" />
        </mxCell>
        <mxCell id="0bNsCw8zncsb32AjO11a-135" value="Router&lt;br&gt;" style="ellipse;whiteSpace=wrap;html=1;strokeWidth=1;fontSize=9;fillColor=#b1ddf0;strokeColor=#10739e;" vertex="1" parent="1">
          <mxGeometry x="545.5" y="533" width="58" height="31" as="geometry" />
        </mxCell>
        <mxCell id="0bNsCw8zncsb32AjO11a-136" value="" style="endArrow=none;html=1;rounded=0;entryX=0.5;entryY=1;entryDx=0;entryDy=0;startArrow=classic;startFill=1;endFill=0;strokeWidth=1;exitX=0.5;exitY=0;exitDx=0;exitDy=0;" edge="1" parent="1" source="0bNsCw8zncsb32AjO11a-135" target="0bNsCw8zncsb32AjO11a-32">
          <mxGeometry width="50" height="50" relative="1" as="geometry">
            <mxPoint x="491" y="547" as="sourcePoint" />
            <mxPoint x="491" y="524" as="targetPoint" />
          </mxGeometry>
        </mxCell>
        <mxCell id="0bNsCw8zncsb32AjO11a-137" value="Router&lt;br&gt;" style="ellipse;whiteSpace=wrap;html=1;strokeWidth=1;fontSize=9;fillColor=#b1ddf0;strokeColor=#10739e;" vertex="1" parent="1">
          <mxGeometry x="756.98" y="538.85" width="58" height="31" as="geometry" />
        </mxCell>
        <mxCell id="0bNsCw8zncsb32AjO11a-138" value="" style="endArrow=none;html=1;rounded=0;entryX=0.5;entryY=1;entryDx=0;entryDy=0;startArrow=classic;startFill=1;endFill=0;strokeWidth=1;exitX=0.5;exitY=0;exitDx=0;exitDy=0;" edge="1" parent="1" source="0bNsCw8zncsb32AjO11a-137" target="0bNsCw8zncsb32AjO11a-118">
          <mxGeometry width="50" height="50" relative="1" as="geometry">
            <mxPoint x="584" y="543" as="sourcePoint" />
            <mxPoint x="584" y="513" as="targetPoint" />
          </mxGeometry>
        </mxCell>
        <mxCell id="0bNsCw8zncsb32AjO11a-139" value="" style="endArrow=none;html=1;rounded=0;strokeWidth=1;fontSize=4;entryX=0.264;entryY=0.939;entryDx=0;entryDy=0;entryPerimeter=0;" edge="1" parent="1" target="0bNsCw8zncsb32AjO11a-133">
          <mxGeometry width="50" height="50" relative="1" as="geometry">
            <mxPoint x="436" y="566" as="sourcePoint" />
            <mxPoint x="511" y="523" as="targetPoint" />
          </mxGeometry>
        </mxCell>
        <mxCell id="0bNsCw8zncsb32AjO11a-140" value="" style="endArrow=none;html=1;rounded=0;strokeWidth=1;fontSize=4;" edge="1" parent="1">
          <mxGeometry width="50" height="50" relative="1" as="geometry">
            <mxPoint x="436" y="566" as="sourcePoint" />
            <mxPoint x="436" y="548" as="targetPoint" />
          </mxGeometry>
        </mxCell>
        <mxCell id="0bNsCw8zncsb32AjO11a-141" value="" style="endArrow=none;html=1;rounded=0;strokeWidth=1;fontSize=4;exitX=0.01;exitY=0.344;exitDx=0;exitDy=0;exitPerimeter=0;" edge="1" parent="1" source="0bNsCw8zncsb32AjO11a-133">
          <mxGeometry width="50" height="50" relative="1" as="geometry">
            <mxPoint x="446" y="576" as="sourcePoint" />
            <mxPoint x="436" y="548" as="targetPoint" />
          </mxGeometry>
        </mxCell>
        <mxCell id="0bNsCw8zncsb32AjO11a-142" value="&lt;h3 style=&quot;margin: 0px; padding: 0px; line-height: 23px; background-color: rgb(255, 255, 255);&quot;&gt;&lt;br&gt;&lt;/h3&gt;" style="text;html=1;strokeColor=none;fillColor=none;align=center;verticalAlign=middle;whiteSpace=wrap;rounded=0;fontSize=4;rotation=-90;strokeWidth=1;" vertex="1" parent="1">
          <mxGeometry x="398" y="576" width="41" height="7" as="geometry" />
        </mxCell>
        <mxCell id="0bNsCw8zncsb32AjO11a-144" value="x435-24t-4s" style="text;html=1;strokeColor=none;fillColor=none;align=center;verticalAlign=middle;whiteSpace=wrap;rounded=0;fontSize=6;rotation=-90;strokeWidth=1;" vertex="1" parent="1">
          <mxGeometry x="412" y="546" width="36" height="19" as="geometry" />
        </mxCell>
        <mxCell id="0bNsCw8zncsb32AjO11a-148" value="&lt;div style=&quot;text-align: center;&quot;&gt;&lt;span style=&quot;background-color: initial;&quot;&gt;&lt;font size=&quot;1&quot;&gt;B1, 1, 2 floor&lt;/font&gt;&lt;/span&gt;&lt;/div&gt;" style="text;whiteSpace=wrap;html=1;fontSize=6;strokeWidth=1;" vertex="1" parent="1">
          <mxGeometry x="761.81" y="580.81" width="60.97" height="15.7" as="geometry" />
        </mxCell>
        <mxCell id="0bNsCw8zncsb32AjO11a-149" value="" style="text;whiteSpace=wrap;html=1;fontSize=6;" vertex="1" parent="1">
          <mxGeometry x="756" y="578.15" width="70.62" height="16.81" as="geometry" />
        </mxCell>
        <mxCell id="0bNsCw8zncsb32AjO11a-150" value="&lt;span style=&quot;color: rgb(0, 0, 0); font-family: Helvetica; font-style: normal; font-variant-ligatures: normal; font-variant-caps: normal; font-weight: 400; letter-spacing: normal; orphans: 2; text-align: center; text-indent: 0px; text-transform: none; widows: 2; word-spacing: 0px; -webkit-text-stroke-width: 0px; background-color: rgb(251, 251, 251); text-decoration-thickness: initial; text-decoration-style: initial; text-decoration-color: initial; float: none; display: inline !important;&quot;&gt;&lt;font style=&quot;font-size: 8px;&quot;&gt;Summit X450e-48t&lt;/font&gt;&lt;/span&gt;" style="text;whiteSpace=wrap;html=1;fontSize=6;" vertex="1" parent="1">
          <mxGeometry x="445.18999999999994" y="564.0000000000001" width="70.62" height="16.81" as="geometry" />
        </mxCell>
        <mxCell id="0bNsCw8zncsb32AjO11a-152" value="&lt;div style=&quot;text-align: center;&quot;&gt;&lt;span style=&quot;background-color: initial;&quot;&gt;&lt;font size=&quot;1&quot;&gt;3 floor&lt;/font&gt;&lt;/span&gt;&lt;/div&gt;" style="text;whiteSpace=wrap;html=1;fontSize=6;strokeWidth=1;" vertex="1" parent="1">
          <mxGeometry x="458" y="610" width="36" height="22" as="geometry" />
        </mxCell>
        <mxCell id="0bNsCw8zncsb32AjO11a-153" value="&lt;span style=&quot;color: rgb(0, 0, 0); font-family: Helvetica; font-style: normal; font-variant-ligatures: normal; font-variant-caps: normal; font-weight: 400; letter-spacing: normal; orphans: 2; text-align: center; text-indent: 0px; text-transform: none; widows: 2; word-spacing: 0px; -webkit-text-stroke-width: 0px; background-color: rgb(251, 251, 251); text-decoration-thickness: initial; text-decoration-style: initial; text-decoration-color: initial; float: none; display: inline !important;&quot;&gt;&lt;font style=&quot;font-size: 8px;&quot;&gt;Summit X440-48t&lt;/font&gt;&lt;/span&gt;" style="text;whiteSpace=wrap;html=1;fontSize=6;" vertex="1" parent="1">
          <mxGeometry x="445.18999999999994" y="625.7" width="70.62" height="16.81" as="geometry" />
        </mxCell>
        <mxCell id="0bNsCw8zncsb32AjO11a-155" value="" style="curved=1;endArrow=classic;html=1;rounded=0;strokeWidth=1;fontSize=8;entryX=0.638;entryY=0.053;entryDx=0;entryDy=0;entryPerimeter=0;exitX=1;exitY=0.5;exitDx=0;exitDy=0;" edge="1" parent="1" source="0bNsCw8zncsb32AjO11a-133" target="0bNsCw8zncsb32AjO11a-153">
          <mxGeometry width="50" height="50" relative="1" as="geometry">
            <mxPoint x="503" y="604" as="sourcePoint" />
            <mxPoint x="502" y="608" as="targetPoint" />
            <Array as="points">
              <mxPoint x="553" y="604" />
              <mxPoint x="503" y="554" />
              <mxPoint x="529" y="617" />
            </Array>
          </mxGeometry>
        </mxCell>
        <mxCell id="0bNsCw8zncsb32AjO11a-157" value="" style="endArrow=classic;html=1;rounded=0;strokeWidth=1;fontSize=8;entryX=1;entryY=0.5;entryDx=0;entryDy=0;" edge="1" parent="1" target="0bNsCw8zncsb32AjO11a-158">
          <mxGeometry width="50" height="50" relative="1" as="geometry">
            <mxPoint x="447" y="634" as="sourcePoint" />
            <mxPoint x="415" y="634" as="targetPoint" />
          </mxGeometry>
        </mxCell>
        <mxCell id="0bNsCw8zncsb32AjO11a-158" value="" style="rounded=0;whiteSpace=wrap;html=1;strokeWidth=1;fontSize=8;" vertex="1" parent="1">
          <mxGeometry x="296" y="601.66" width="120" height="60" as="geometry" />
        </mxCell>
        <mxCell id="0bNsCw8zncsb32AjO11a-159" value="&lt;div style=&quot;text-align: center;&quot;&gt;&lt;font size=&quot;1&quot;&gt;PC&lt;/font&gt;&lt;/div&gt;" style="text;whiteSpace=wrap;html=1;fontSize=6;strokeWidth=1;" vertex="1" parent="1">
          <mxGeometry x="307" y="604" width="19" height="21.7" as="geometry" />
        </mxCell>
        <mxCell id="0bNsCw8zncsb32AjO11a-161" value="&lt;div style=&quot;text-align: center;&quot;&gt;&lt;font size=&quot;1&quot;&gt;PC&lt;/font&gt;&lt;/div&gt;" style="text;whiteSpace=wrap;html=1;fontSize=6;strokeWidth=1;" vertex="1" parent="1">
          <mxGeometry x="331" y="604" width="19" height="21.7" as="geometry" />
        </mxCell>
        <mxCell id="0bNsCw8zncsb32AjO11a-162" value="&lt;div style=&quot;text-align: center;&quot;&gt;&lt;font size=&quot;1&quot;&gt;PC&lt;/font&gt;&lt;/div&gt;" style="text;whiteSpace=wrap;html=1;fontSize=6;strokeWidth=1;" vertex="1" parent="1">
          <mxGeometry x="356" y="604" width="19" height="21.7" as="geometry" />
        </mxCell>
        <mxCell id="0bNsCw8zncsb32AjO11a-163" value="&lt;div style=&quot;text-align: center;&quot;&gt;&lt;font size=&quot;1&quot;&gt;PC&lt;/font&gt;&lt;/div&gt;" style="text;whiteSpace=wrap;html=1;fontSize=6;strokeWidth=1;" vertex="1" parent="1">
          <mxGeometry x="382" y="604" width="19" height="21.7" as="geometry" />
        </mxCell>
        <mxCell id="0bNsCw8zncsb32AjO11a-169" value="&lt;div style=&quot;text-align: center;&quot;&gt;&lt;font size=&quot;1&quot;&gt;PC&lt;/font&gt;&lt;/div&gt;" style="text;whiteSpace=wrap;html=1;fontSize=6;strokeWidth=1;" vertex="1" parent="1">
          <mxGeometry x="307" y="620.81" width="19" height="21.7" as="geometry" />
        </mxCell>
        <mxCell id="0bNsCw8zncsb32AjO11a-170" value="&lt;div style=&quot;text-align: center;&quot;&gt;&lt;font size=&quot;1&quot;&gt;PC&lt;/font&gt;&lt;/div&gt;" style="text;whiteSpace=wrap;html=1;fontSize=6;strokeWidth=1;" vertex="1" parent="1">
          <mxGeometry x="331" y="620.81" width="19" height="21.7" as="geometry" />
        </mxCell>
        <mxCell id="0bNsCw8zncsb32AjO11a-171" value="&lt;div style=&quot;text-align: center;&quot;&gt;&lt;font size=&quot;1&quot;&gt;PC&lt;/font&gt;&lt;/div&gt;" style="text;whiteSpace=wrap;html=1;fontSize=6;strokeWidth=1;" vertex="1" parent="1">
          <mxGeometry x="356" y="620.81" width="19" height="21.7" as="geometry" />
        </mxCell>
        <mxCell id="0bNsCw8zncsb32AjO11a-172" value="&lt;div style=&quot;text-align: center;&quot;&gt;&lt;font size=&quot;1&quot;&gt;PC&lt;/font&gt;&lt;/div&gt;" style="text;whiteSpace=wrap;html=1;fontSize=6;strokeWidth=1;" vertex="1" parent="1">
          <mxGeometry x="382" y="620.81" width="19" height="21.7" as="geometry" />
        </mxCell>
        <mxCell id="0bNsCw8zncsb32AjO11a-173" value="&lt;div style=&quot;text-align: center;&quot;&gt;&lt;font size=&quot;1&quot;&gt;PC&lt;/font&gt;&lt;/div&gt;" style="text;whiteSpace=wrap;html=1;fontSize=6;strokeWidth=1;" vertex="1" parent="1">
          <mxGeometry x="307" y="638.11" width="19" height="21.7" as="geometry" />
        </mxCell>
        <mxCell id="0bNsCw8zncsb32AjO11a-174" value="&lt;div style=&quot;text-align: center;&quot;&gt;&lt;font size=&quot;1&quot;&gt;PC&lt;/font&gt;&lt;/div&gt;" style="text;whiteSpace=wrap;html=1;fontSize=6;strokeWidth=1;" vertex="1" parent="1">
          <mxGeometry x="331" y="638.11" width="19" height="21.7" as="geometry" />
        </mxCell>
        <mxCell id="0bNsCw8zncsb32AjO11a-175" value="&lt;div style=&quot;text-align: center;&quot;&gt;&lt;font size=&quot;1&quot;&gt;PC&lt;/font&gt;&lt;/div&gt;" style="text;whiteSpace=wrap;html=1;fontSize=6;strokeWidth=1;" vertex="1" parent="1">
          <mxGeometry x="356" y="638.11" width="19" height="21.7" as="geometry" />
        </mxCell>
        <mxCell id="0bNsCw8zncsb32AjO11a-176" value="&lt;div style=&quot;text-align: center;&quot;&gt;&lt;font size=&quot;1&quot;&gt;PC&lt;/font&gt;&lt;/div&gt;" style="text;whiteSpace=wrap;html=1;fontSize=6;strokeWidth=1;" vertex="1" parent="1">
          <mxGeometry x="382" y="638.11" width="19" height="21.7" as="geometry" />
        </mxCell>
        <mxCell id="0bNsCw8zncsb32AjO11a-189" value="" style="rounded=0;whiteSpace=wrap;html=1;strokeWidth=1;fontSize=8;" vertex="1" parent="1">
          <mxGeometry x="285" y="529" width="120" height="60" as="geometry" />
        </mxCell>
        <mxCell id="0bNsCw8zncsb32AjO11a-190" value="&lt;div style=&quot;text-align: center;&quot;&gt;&lt;font size=&quot;1&quot;&gt;PC&lt;/font&gt;&lt;/div&gt;" style="text;whiteSpace=wrap;html=1;fontSize=6;strokeWidth=1;" vertex="1" parent="1">
          <mxGeometry x="296" y="531.34" width="19" height="21.7" as="geometry" />
        </mxCell>
        <mxCell id="0bNsCw8zncsb32AjO11a-191" value="&lt;div style=&quot;text-align: center;&quot;&gt;&lt;font size=&quot;1&quot;&gt;PC&lt;/font&gt;&lt;/div&gt;" style="text;whiteSpace=wrap;html=1;fontSize=6;strokeWidth=1;" vertex="1" parent="1">
          <mxGeometry x="320" y="531.34" width="19" height="21.7" as="geometry" />
        </mxCell>
        <mxCell id="0bNsCw8zncsb32AjO11a-192" value="&lt;div style=&quot;text-align: center;&quot;&gt;&lt;font size=&quot;1&quot;&gt;PC&lt;/font&gt;&lt;/div&gt;" style="text;whiteSpace=wrap;html=1;fontSize=6;strokeWidth=1;" vertex="1" parent="1">
          <mxGeometry x="345" y="531.34" width="19" height="21.7" as="geometry" />
        </mxCell>
        <mxCell id="0bNsCw8zncsb32AjO11a-193" value="&lt;div style=&quot;text-align: center;&quot;&gt;&lt;font size=&quot;1&quot;&gt;PC&lt;/font&gt;&lt;/div&gt;" style="text;whiteSpace=wrap;html=1;fontSize=6;strokeWidth=1;" vertex="1" parent="1">
          <mxGeometry x="371" y="531.34" width="19" height="21.7" as="geometry" />
        </mxCell>
        <mxCell id="0bNsCw8zncsb32AjO11a-194" value="&lt;div style=&quot;text-align: center;&quot;&gt;&lt;font size=&quot;1&quot;&gt;PC&lt;/font&gt;&lt;/div&gt;" style="text;whiteSpace=wrap;html=1;fontSize=6;strokeWidth=1;" vertex="1" parent="1">
          <mxGeometry x="296" y="548.15" width="19" height="21.7" as="geometry" />
        </mxCell>
        <mxCell id="0bNsCw8zncsb32AjO11a-195" value="&lt;div style=&quot;text-align: center;&quot;&gt;&lt;font size=&quot;1&quot;&gt;PC&lt;/font&gt;&lt;/div&gt;" style="text;whiteSpace=wrap;html=1;fontSize=6;strokeWidth=1;" vertex="1" parent="1">
          <mxGeometry x="320" y="548.15" width="19" height="21.7" as="geometry" />
        </mxCell>
        <mxCell id="0bNsCw8zncsb32AjO11a-196" value="&lt;div style=&quot;text-align: center;&quot;&gt;&lt;font size=&quot;1&quot;&gt;PC&lt;/font&gt;&lt;/div&gt;" style="text;whiteSpace=wrap;html=1;fontSize=6;strokeWidth=1;" vertex="1" parent="1">
          <mxGeometry x="345" y="548.15" width="19" height="21.7" as="geometry" />
        </mxCell>
        <mxCell id="0bNsCw8zncsb32AjO11a-197" value="&lt;div style=&quot;text-align: center;&quot;&gt;&lt;font size=&quot;1&quot;&gt;PC&lt;/font&gt;&lt;/div&gt;" style="text;whiteSpace=wrap;html=1;fontSize=6;strokeWidth=1;" vertex="1" parent="1">
          <mxGeometry x="371" y="548.15" width="19" height="21.7" as="geometry" />
        </mxCell>
        <mxCell id="0bNsCw8zncsb32AjO11a-198" value="&lt;div style=&quot;text-align: center;&quot;&gt;&lt;font size=&quot;1&quot;&gt;PC&lt;/font&gt;&lt;/div&gt;" style="text;whiteSpace=wrap;html=1;fontSize=6;strokeWidth=1;" vertex="1" parent="1">
          <mxGeometry x="296" y="565.45" width="19" height="21.7" as="geometry" />
        </mxCell>
        <mxCell id="0bNsCw8zncsb32AjO11a-199" value="&lt;div style=&quot;text-align: center;&quot;&gt;&lt;font size=&quot;1&quot;&gt;PC&lt;/font&gt;&lt;/div&gt;" style="text;whiteSpace=wrap;html=1;fontSize=6;strokeWidth=1;" vertex="1" parent="1">
          <mxGeometry x="320" y="565.45" width="19" height="21.7" as="geometry" />
        </mxCell>
        <mxCell id="0bNsCw8zncsb32AjO11a-200" value="&lt;div style=&quot;text-align: center;&quot;&gt;&lt;font size=&quot;1&quot;&gt;PC&lt;/font&gt;&lt;/div&gt;" style="text;whiteSpace=wrap;html=1;fontSize=6;strokeWidth=1;" vertex="1" parent="1">
          <mxGeometry x="345" y="565.45" width="19" height="21.7" as="geometry" />
        </mxCell>
        <mxCell id="0bNsCw8zncsb32AjO11a-201" value="&lt;div style=&quot;text-align: center;&quot;&gt;&lt;font size=&quot;1&quot;&gt;PC&lt;/font&gt;&lt;/div&gt;" style="text;whiteSpace=wrap;html=1;fontSize=6;strokeWidth=1;" vertex="1" parent="1">
          <mxGeometry x="371" y="565.45" width="19" height="21.7" as="geometry" />
        </mxCell>
        <mxCell id="0bNsCw8zncsb32AjO11a-202" value="" style="endArrow=classic;html=1;rounded=0;strokeWidth=1;fontSize=8;entryX=1;entryY=0.75;entryDx=0;entryDy=0;exitX=0.036;exitY=0.5;exitDx=0;exitDy=0;exitPerimeter=0;" edge="1" parent="1" source="0bNsCw8zncsb32AjO11a-203" target="0bNsCw8zncsb32AjO11a-189">
          <mxGeometry width="50" height="50" relative="1" as="geometry">
            <mxPoint x="457" y="644" as="sourcePoint" />
            <mxPoint x="426" y="642" as="targetPoint" />
          </mxGeometry>
        </mxCell>
        <mxCell id="0bNsCw8zncsb32AjO11a-203" value="&lt;div style=&quot;text-align: center;&quot;&gt;&lt;span style=&quot;background-color: initial;&quot;&gt;&lt;font size=&quot;1&quot;&gt;1, 2 floor&lt;/font&gt;&lt;/span&gt;&lt;/div&gt;" style="text;whiteSpace=wrap;html=1;fontSize=6;strokeWidth=1;" vertex="1" parent="1">
          <mxGeometry x="455.5400000000001" y="578.15" width="40.93" height="15.7" as="geometry" />
        </mxCell>
        <mxCell id="0bNsCw8zncsb32AjO11a-212" value="&lt;span style=&quot;color: rgb(0, 0, 0); font-family: Helvetica; font-style: normal; font-variant-ligatures: normal; font-variant-caps: normal; font-weight: 400; letter-spacing: normal; orphans: 2; text-align: center; text-indent: 0px; text-transform: none; widows: 2; word-spacing: 0px; -webkit-text-stroke-width: 0px; background-color: rgb(251, 251, 251); text-decoration-thickness: initial; text-decoration-style: initial; text-decoration-color: initial; float: none; display: inline !important;&quot;&gt;&lt;font style=&quot;font-size: 8px;&quot;&gt;Summit X450e-48t&lt;/font&gt;&lt;/span&gt;" style="text;whiteSpace=wrap;html=1;fontSize=6;" vertex="1" parent="1">
          <mxGeometry x="538.1899999999999" y="561.34" width="70.62" height="16.81" as="geometry" />
        </mxCell>
        <mxCell id="0bNsCw8zncsb32AjO11a-213" value="&lt;div style=&quot;text-align: center;&quot;&gt;&lt;span style=&quot;background-color: initial;&quot;&gt;&lt;font size=&quot;1&quot;&gt;1, 2 floor&lt;/font&gt;&lt;/span&gt;&lt;/div&gt;" style="text;whiteSpace=wrap;html=1;fontSize=6;strokeWidth=1;" vertex="1" parent="1">
          <mxGeometry x="553.0300000000001" y="578.15" width="40.93" height="15.7" as="geometry" />
        </mxCell>
        <mxCell id="0bNsCw8zncsb32AjO11a-214" value="&lt;span style=&quot;color: rgb(0, 0, 0); font-family: Helvetica; font-style: normal; font-variant-ligatures: normal; font-variant-caps: normal; font-weight: 400; letter-spacing: normal; orphans: 2; text-align: center; text-indent: 0px; text-transform: none; widows: 2; word-spacing: 0px; -webkit-text-stroke-width: 0px; background-color: rgb(251, 251, 251); text-decoration-thickness: initial; text-decoration-style: initial; text-decoration-color: initial; float: none; display: inline !important;&quot;&gt;&lt;font style=&quot;font-size: 8px;&quot;&gt;Summit X450e-48t&lt;/font&gt;&lt;/span&gt;" style="text;whiteSpace=wrap;html=1;fontSize=6;" vertex="1" parent="1">
          <mxGeometry x="752.16" y="566.19" width="70.62" height="16.81" as="geometry" />
        </mxCell>
        <mxCell id="0bNsCw8zncsb32AjO11a-215" value="etc.&lt;br&gt;(other floors)" style="text;html=1;strokeColor=none;fillColor=none;align=center;verticalAlign=middle;whiteSpace=wrap;rounded=0;fontSize=8;" vertex="1" parent="1">
          <mxGeometry x="446" y="663.21" width="60" height="30" as="geometry" />
        </mxCell>
        <mxCell id="0bNsCw8zncsb32AjO11a-218" value="etc.&lt;br&gt;(other floors)" style="text;html=1;strokeColor=none;fillColor=none;align=center;verticalAlign=middle;whiteSpace=wrap;rounded=0;fontSize=8;" vertex="1" parent="1">
          <mxGeometry x="546" y="663.21" width="60" height="30" as="geometry" />
        </mxCell>
        <mxCell id="0bNsCw8zncsb32AjO11a-219" value="etc.&lt;br&gt;(other floors)" style="text;html=1;strokeColor=none;fillColor=none;align=center;verticalAlign=middle;whiteSpace=wrap;rounded=0;fontSize=8;" vertex="1" parent="1">
          <mxGeometry x="759.6199999999999" y="651.56" width="60" height="30" as="geometry" />
        </mxCell>
        <mxCell id="0bNsCw8zncsb32AjO11a-220" value="&lt;div style=&quot;text-align: center;&quot;&gt;&lt;span style=&quot;background-color: initial;&quot;&gt;&lt;font size=&quot;1&quot;&gt;3, 4 floor&lt;/font&gt;&lt;/span&gt;&lt;/div&gt;" style="text;whiteSpace=wrap;html=1;fontSize=6;strokeWidth=1;" vertex="1" parent="1">
          <mxGeometry x="553.16" y="616.11" width="44.69" height="22" as="geometry" />
        </mxCell>
        <mxCell id="0bNsCw8zncsb32AjO11a-221" value="&lt;span style=&quot;color: rgb(0, 0, 0); font-family: Helvetica; font-style: normal; font-variant-ligatures: normal; font-variant-caps: normal; font-weight: 400; letter-spacing: normal; orphans: 2; text-align: center; text-indent: 0px; text-transform: none; widows: 2; word-spacing: 0px; -webkit-text-stroke-width: 0px; background-color: rgb(251, 251, 251); text-decoration-thickness: initial; text-decoration-style: initial; text-decoration-color: initial; float: none; display: inline !important;&quot;&gt;&lt;font style=&quot;font-size: 8px;&quot;&gt;Summit X440-48t&lt;/font&gt;&lt;/span&gt;" style="text;whiteSpace=wrap;html=1;fontSize=6;" vertex="1" parent="1">
          <mxGeometry x="542.5" y="631.1" width="70.62" height="16.81" as="geometry" />
        </mxCell>
        <mxCell id="0bNsCw8zncsb32AjO11a-222" value="&lt;div style=&quot;text-align: center;&quot;&gt;&lt;span style=&quot;background-color: initial;&quot;&gt;&lt;font size=&quot;1&quot;&gt;3 floor&lt;/font&gt;&lt;/span&gt;&lt;/div&gt;" style="text;whiteSpace=wrap;html=1;fontSize=6;strokeWidth=1;" vertex="1" parent="1">
          <mxGeometry x="771.6199999999999" y="615.4" width="36" height="22" as="geometry" />
        </mxCell>
        <mxCell id="0bNsCw8zncsb32AjO11a-223" value="&lt;span style=&quot;color: rgb(0, 0, 0); font-family: Helvetica; font-style: normal; font-variant-ligatures: normal; font-variant-caps: normal; font-weight: 400; letter-spacing: normal; orphans: 2; text-align: center; text-indent: 0px; text-transform: none; widows: 2; word-spacing: 0px; -webkit-text-stroke-width: 0px; background-color: rgb(251, 251, 251); text-decoration-thickness: initial; text-decoration-style: initial; text-decoration-color: initial; float: none; display: inline !important;&quot;&gt;&lt;font style=&quot;font-size: 8px;&quot;&gt;Summit X440-48t&lt;/font&gt;&lt;/span&gt;" style="text;whiteSpace=wrap;html=1;fontSize=6;" vertex="1" parent="1">
          <mxGeometry x="756" y="629.49" width="70.62" height="7.91" as="geometry" />
        </mxCell>
        <mxCell id="0bNsCw8zncsb32AjO11a-229" value="" style="curved=1;endArrow=classic;html=1;rounded=0;strokeWidth=1;fontSize=8;entryX=0.75;entryY=0;entryDx=0;entryDy=0;exitX=0.982;exitY=0.64;exitDx=0;exitDy=0;exitPerimeter=0;" edge="1" parent="1" source="0bNsCw8zncsb32AjO11a-135" target="0bNsCw8zncsb32AjO11a-221">
          <mxGeometry width="50" height="50" relative="1" as="geometry">
            <mxPoint x="648" y="561" as="sourcePoint" />
            <mxPoint x="628" y="635" as="targetPoint" />
            <Array as="points">
              <mxPoint x="612" y="587" />
              <mxPoint x="621" y="600" />
              <mxPoint x="615" y="594" />
              <mxPoint x="615" y="580" />
              <mxPoint x="608" y="598" />
              <mxPoint x="618" y="608" />
            </Array>
          </mxGeometry>
        </mxCell>
        <mxCell id="0bNsCw8zncsb32AjO11a-232" value="" style="endArrow=none;html=1;rounded=0;entryX=1;entryY=0.75;entryDx=0;entryDy=0;startArrow=classic;startFill=1;endFill=0;strokeWidth=1;" edge="1" parent="1" target="0bNsCw8zncsb32AjO11a-213">
          <mxGeometry width="50" height="50" relative="1" as="geometry">
            <mxPoint x="632" y="600" as="sourcePoint" />
            <mxPoint x="584" y="513" as="targetPoint" />
          </mxGeometry>
        </mxCell>
        <mxCell id="0bNsCw8zncsb32AjO11a-233" value="" style="rounded=0;whiteSpace=wrap;html=1;strokeWidth=1;fontSize=8;" vertex="1" parent="1">
          <mxGeometry x="632.16" y="583" width="114.84" height="57" as="geometry" />
        </mxCell>
        <mxCell id="0bNsCw8zncsb32AjO11a-234" value="&lt;div style=&quot;text-align: center;&quot;&gt;&lt;font size=&quot;1&quot;&gt;PC&lt;/font&gt;&lt;/div&gt;" style="text;whiteSpace=wrap;html=1;fontSize=6;strokeWidth=1;" vertex="1" parent="1">
          <mxGeometry x="643.1600000000001" y="582.34" width="19" height="21.7" as="geometry" />
        </mxCell>
        <mxCell id="0bNsCw8zncsb32AjO11a-235" value="&lt;div style=&quot;text-align: center;&quot;&gt;&lt;font size=&quot;1&quot;&gt;PC&lt;/font&gt;&lt;/div&gt;" style="text;whiteSpace=wrap;html=1;fontSize=6;strokeWidth=1;" vertex="1" parent="1">
          <mxGeometry x="667.1600000000001" y="582.34" width="19" height="21.7" as="geometry" />
        </mxCell>
        <mxCell id="0bNsCw8zncsb32AjO11a-236" value="&lt;div style=&quot;text-align: center;&quot;&gt;&lt;font size=&quot;1&quot;&gt;PC&lt;/font&gt;&lt;/div&gt;" style="text;whiteSpace=wrap;html=1;fontSize=6;strokeWidth=1;" vertex="1" parent="1">
          <mxGeometry x="692.1600000000001" y="582.34" width="19" height="21.7" as="geometry" />
        </mxCell>
        <mxCell id="0bNsCw8zncsb32AjO11a-237" value="&lt;div style=&quot;text-align: center;&quot;&gt;&lt;font size=&quot;1&quot;&gt;PC&lt;/font&gt;&lt;/div&gt;" style="text;whiteSpace=wrap;html=1;fontSize=6;strokeWidth=1;" vertex="1" parent="1">
          <mxGeometry x="718.1600000000001" y="582.34" width="19" height="21.7" as="geometry" />
        </mxCell>
        <mxCell id="0bNsCw8zncsb32AjO11a-238" value="&lt;div style=&quot;text-align: center;&quot;&gt;&lt;font size=&quot;1&quot;&gt;PC&lt;/font&gt;&lt;/div&gt;" style="text;whiteSpace=wrap;html=1;fontSize=6;strokeWidth=1;" vertex="1" parent="1">
          <mxGeometry x="643.1600000000001" y="599.15" width="19" height="21.7" as="geometry" />
        </mxCell>
        <mxCell id="0bNsCw8zncsb32AjO11a-239" value="&lt;div style=&quot;text-align: center;&quot;&gt;&lt;font size=&quot;1&quot;&gt;PC&lt;/font&gt;&lt;/div&gt;" style="text;whiteSpace=wrap;html=1;fontSize=6;strokeWidth=1;" vertex="1" parent="1">
          <mxGeometry x="667.1600000000001" y="599.15" width="19" height="21.7" as="geometry" />
        </mxCell>
        <mxCell id="0bNsCw8zncsb32AjO11a-240" value="&lt;div style=&quot;text-align: center;&quot;&gt;&lt;font size=&quot;1&quot;&gt;PC&lt;/font&gt;&lt;/div&gt;" style="text;whiteSpace=wrap;html=1;fontSize=6;strokeWidth=1;" vertex="1" parent="1">
          <mxGeometry x="692.1600000000001" y="599.15" width="19" height="21.7" as="geometry" />
        </mxCell>
        <mxCell id="0bNsCw8zncsb32AjO11a-241" value="&lt;div style=&quot;text-align: center;&quot;&gt;&lt;font size=&quot;1&quot;&gt;PC&lt;/font&gt;&lt;/div&gt;" style="text;whiteSpace=wrap;html=1;fontSize=6;strokeWidth=1;" vertex="1" parent="1">
          <mxGeometry x="718.1600000000001" y="599.15" width="19" height="21.7" as="geometry" />
        </mxCell>
        <mxCell id="0bNsCw8zncsb32AjO11a-242" value="&lt;div style=&quot;text-align: center;&quot;&gt;&lt;font size=&quot;1&quot;&gt;PC&lt;/font&gt;&lt;/div&gt;" style="text;whiteSpace=wrap;html=1;fontSize=6;strokeWidth=1;" vertex="1" parent="1">
          <mxGeometry x="643.1600000000001" y="616.45" width="19" height="21.7" as="geometry" />
        </mxCell>
        <mxCell id="0bNsCw8zncsb32AjO11a-243" value="&lt;div style=&quot;text-align: center;&quot;&gt;&lt;font size=&quot;1&quot;&gt;PC&lt;/font&gt;&lt;/div&gt;" style="text;whiteSpace=wrap;html=1;fontSize=6;strokeWidth=1;" vertex="1" parent="1">
          <mxGeometry x="667.1600000000001" y="616.45" width="19" height="21.7" as="geometry" />
        </mxCell>
        <mxCell id="0bNsCw8zncsb32AjO11a-244" value="&lt;div style=&quot;text-align: center;&quot;&gt;&lt;font size=&quot;1&quot;&gt;PC&lt;/font&gt;&lt;/div&gt;" style="text;whiteSpace=wrap;html=1;fontSize=6;strokeWidth=1;" vertex="1" parent="1">
          <mxGeometry x="692.1600000000001" y="616.45" width="19" height="21.7" as="geometry" />
        </mxCell>
        <mxCell id="0bNsCw8zncsb32AjO11a-245" value="&lt;div style=&quot;text-align: center;&quot;&gt;&lt;font size=&quot;1&quot;&gt;PC&lt;/font&gt;&lt;/div&gt;" style="text;whiteSpace=wrap;html=1;fontSize=6;strokeWidth=1;" vertex="1" parent="1">
          <mxGeometry x="718.1600000000001" y="616.45" width="19" height="21.7" as="geometry" />
        </mxCell>
        <mxCell id="0bNsCw8zncsb32AjO11a-246" value="" style="rounded=0;whiteSpace=wrap;html=1;strokeWidth=1;fontSize=8;" vertex="1" parent="1">
          <mxGeometry x="622.32" y="656.66" width="114.84" height="57" as="geometry" />
        </mxCell>
        <mxCell id="0bNsCw8zncsb32AjO11a-247" value="&lt;div style=&quot;text-align: center;&quot;&gt;&lt;font size=&quot;1&quot;&gt;PC&lt;/font&gt;&lt;/div&gt;" style="text;whiteSpace=wrap;html=1;fontSize=6;strokeWidth=1;" vertex="1" parent="1">
          <mxGeometry x="633.3200000000002" y="656" width="19" height="21.7" as="geometry" />
        </mxCell>
        <mxCell id="0bNsCw8zncsb32AjO11a-248" value="&lt;div style=&quot;text-align: center;&quot;&gt;&lt;font size=&quot;1&quot;&gt;PC&lt;/font&gt;&lt;/div&gt;" style="text;whiteSpace=wrap;html=1;fontSize=6;strokeWidth=1;" vertex="1" parent="1">
          <mxGeometry x="657.3200000000002" y="656" width="19" height="21.7" as="geometry" />
        </mxCell>
        <mxCell id="0bNsCw8zncsb32AjO11a-249" value="&lt;div style=&quot;text-align: center;&quot;&gt;&lt;font size=&quot;1&quot;&gt;PC&lt;/font&gt;&lt;/div&gt;" style="text;whiteSpace=wrap;html=1;fontSize=6;strokeWidth=1;" vertex="1" parent="1">
          <mxGeometry x="682.3200000000002" y="656" width="19" height="21.7" as="geometry" />
        </mxCell>
        <mxCell id="0bNsCw8zncsb32AjO11a-250" value="&lt;div style=&quot;text-align: center;&quot;&gt;&lt;font size=&quot;1&quot;&gt;PC&lt;/font&gt;&lt;/div&gt;" style="text;whiteSpace=wrap;html=1;fontSize=6;strokeWidth=1;" vertex="1" parent="1">
          <mxGeometry x="708.3200000000002" y="656" width="19" height="21.7" as="geometry" />
        </mxCell>
        <mxCell id="0bNsCw8zncsb32AjO11a-251" value="&lt;div style=&quot;text-align: center;&quot;&gt;&lt;font size=&quot;1&quot;&gt;PC&lt;/font&gt;&lt;/div&gt;" style="text;whiteSpace=wrap;html=1;fontSize=6;strokeWidth=1;" vertex="1" parent="1">
          <mxGeometry x="633.3200000000002" y="672.81" width="19" height="21.7" as="geometry" />
        </mxCell>
        <mxCell id="0bNsCw8zncsb32AjO11a-252" value="&lt;div style=&quot;text-align: center;&quot;&gt;&lt;font size=&quot;1&quot;&gt;PC&lt;/font&gt;&lt;/div&gt;" style="text;whiteSpace=wrap;html=1;fontSize=6;strokeWidth=1;" vertex="1" parent="1">
          <mxGeometry x="657.3200000000002" y="672.81" width="19" height="21.7" as="geometry" />
        </mxCell>
        <mxCell id="0bNsCw8zncsb32AjO11a-253" value="&lt;div style=&quot;text-align: center;&quot;&gt;&lt;font size=&quot;1&quot;&gt;PC&lt;/font&gt;&lt;/div&gt;" style="text;whiteSpace=wrap;html=1;fontSize=6;strokeWidth=1;" vertex="1" parent="1">
          <mxGeometry x="682.3200000000002" y="672.81" width="19" height="21.7" as="geometry" />
        </mxCell>
        <mxCell id="0bNsCw8zncsb32AjO11a-254" value="&lt;div style=&quot;text-align: center;&quot;&gt;&lt;font size=&quot;1&quot;&gt;PC&lt;/font&gt;&lt;/div&gt;" style="text;whiteSpace=wrap;html=1;fontSize=6;strokeWidth=1;" vertex="1" parent="1">
          <mxGeometry x="708.3200000000002" y="672.81" width="19" height="21.7" as="geometry" />
        </mxCell>
        <mxCell id="0bNsCw8zncsb32AjO11a-255" value="&lt;div style=&quot;text-align: center;&quot;&gt;&lt;font size=&quot;1&quot;&gt;PC&lt;/font&gt;&lt;/div&gt;" style="text;whiteSpace=wrap;html=1;fontSize=6;strokeWidth=1;" vertex="1" parent="1">
          <mxGeometry x="633.3200000000002" y="690.11" width="19" height="21.7" as="geometry" />
        </mxCell>
        <mxCell id="0bNsCw8zncsb32AjO11a-256" value="&lt;div style=&quot;text-align: center;&quot;&gt;&lt;font size=&quot;1&quot;&gt;PC&lt;/font&gt;&lt;/div&gt;" style="text;whiteSpace=wrap;html=1;fontSize=6;strokeWidth=1;" vertex="1" parent="1">
          <mxGeometry x="657.3200000000002" y="690.11" width="19" height="21.7" as="geometry" />
        </mxCell>
        <mxCell id="0bNsCw8zncsb32AjO11a-257" value="&lt;div style=&quot;text-align: center;&quot;&gt;&lt;font size=&quot;1&quot;&gt;PC&lt;/font&gt;&lt;/div&gt;" style="text;whiteSpace=wrap;html=1;fontSize=6;strokeWidth=1;" vertex="1" parent="1">
          <mxGeometry x="682.3200000000002" y="690.11" width="19" height="21.7" as="geometry" />
        </mxCell>
        <mxCell id="0bNsCw8zncsb32AjO11a-258" value="&lt;div style=&quot;text-align: center;&quot;&gt;&lt;font size=&quot;1&quot;&gt;PC&lt;/font&gt;&lt;/div&gt;" style="text;whiteSpace=wrap;html=1;fontSize=6;strokeWidth=1;" vertex="1" parent="1">
          <mxGeometry x="708.3200000000002" y="690.11" width="19" height="21.7" as="geometry" />
        </mxCell>
        <mxCell id="0bNsCw8zncsb32AjO11a-259" value="" style="endArrow=none;html=1;rounded=0;entryX=0.939;entryY=0.98;entryDx=0;entryDy=0;startArrow=classic;startFill=1;endFill=0;strokeWidth=1;exitX=0.25;exitY=0;exitDx=0;exitDy=0;entryPerimeter=0;" edge="1" parent="1" source="0bNsCw8zncsb32AjO11a-247" target="0bNsCw8zncsb32AjO11a-221">
          <mxGeometry width="50" height="50" relative="1" as="geometry">
            <mxPoint x="585" y="543" as="sourcePoint" />
            <mxPoint x="584" y="513" as="targetPoint" />
          </mxGeometry>
        </mxCell>
        <mxCell id="0bNsCw8zncsb32AjO11a-260" value="" style="curved=1;endArrow=classic;html=1;rounded=0;strokeWidth=1;fontSize=8;exitX=1.019;exitY=0.594;exitDx=0;exitDy=0;exitPerimeter=0;entryX=1;entryY=0.5;entryDx=0;entryDy=0;" edge="1" parent="1" source="0bNsCw8zncsb32AjO11a-137" target="0bNsCw8zncsb32AjO11a-222">
          <mxGeometry width="50" height="50" relative="1" as="geometry">
            <mxPoint x="687" y="653" as="sourcePoint" />
            <mxPoint x="737" y="603" as="targetPoint" />
            <Array as="points">
              <mxPoint x="835" y="595" />
              <mxPoint x="829" y="595" />
              <mxPoint x="837" y="611" />
              <mxPoint x="882" y="609" />
              <mxPoint x="862" y="610" />
            </Array>
          </mxGeometry>
        </mxCell>
        <mxCell id="0bNsCw8zncsb32AjO11a-261" value="" style="endArrow=none;html=1;rounded=0;entryX=1;entryY=0.5;entryDx=0;entryDy=0;startArrow=classic;startFill=1;endFill=0;strokeWidth=1;" edge="1" parent="1" target="0bNsCw8zncsb32AjO11a-149">
          <mxGeometry width="50" height="50" relative="1" as="geometry">
            <mxPoint x="869" y="576" as="sourcePoint" />
            <mxPoint x="666" y="532" as="targetPoint" />
          </mxGeometry>
        </mxCell>
        <mxCell id="0bNsCw8zncsb32AjO11a-263" value="" style="rounded=0;whiteSpace=wrap;html=1;strokeWidth=1;fontSize=8;" vertex="1" parent="1">
          <mxGeometry x="870" y="546.43" width="114.84" height="57" as="geometry" />
        </mxCell>
        <mxCell id="0bNsCw8zncsb32AjO11a-264" value="&lt;div style=&quot;text-align: center;&quot;&gt;&lt;font size=&quot;1&quot;&gt;PC&lt;/font&gt;&lt;/div&gt;" style="text;whiteSpace=wrap;html=1;fontSize=6;strokeWidth=1;" vertex="1" parent="1">
          <mxGeometry x="881.0000000000002" y="545.77" width="19" height="21.7" as="geometry" />
        </mxCell>
        <mxCell id="0bNsCw8zncsb32AjO11a-265" value="&lt;div style=&quot;text-align: center;&quot;&gt;&lt;font size=&quot;1&quot;&gt;PC&lt;/font&gt;&lt;/div&gt;" style="text;whiteSpace=wrap;html=1;fontSize=6;strokeWidth=1;" vertex="1" parent="1">
          <mxGeometry x="905.0000000000002" y="545.77" width="19" height="21.7" as="geometry" />
        </mxCell>
        <mxCell id="0bNsCw8zncsb32AjO11a-266" value="&lt;div style=&quot;text-align: center;&quot;&gt;&lt;font size=&quot;1&quot;&gt;PC&lt;/font&gt;&lt;/div&gt;" style="text;whiteSpace=wrap;html=1;fontSize=6;strokeWidth=1;" vertex="1" parent="1">
          <mxGeometry x="930.0000000000002" y="545.77" width="19" height="21.7" as="geometry" />
        </mxCell>
        <mxCell id="0bNsCw8zncsb32AjO11a-267" value="&lt;div style=&quot;text-align: center;&quot;&gt;&lt;font size=&quot;1&quot;&gt;PC&lt;/font&gt;&lt;/div&gt;" style="text;whiteSpace=wrap;html=1;fontSize=6;strokeWidth=1;" vertex="1" parent="1">
          <mxGeometry x="956.0000000000002" y="545.77" width="19" height="21.7" as="geometry" />
        </mxCell>
        <mxCell id="0bNsCw8zncsb32AjO11a-268" value="&lt;div style=&quot;text-align: center;&quot;&gt;&lt;font size=&quot;1&quot;&gt;PC&lt;/font&gt;&lt;/div&gt;" style="text;whiteSpace=wrap;html=1;fontSize=6;strokeWidth=1;" vertex="1" parent="1">
          <mxGeometry x="881.0000000000002" y="562.5799999999999" width="19" height="21.7" as="geometry" />
        </mxCell>
        <mxCell id="0bNsCw8zncsb32AjO11a-269" value="&lt;div style=&quot;text-align: center;&quot;&gt;&lt;font size=&quot;1&quot;&gt;PC&lt;/font&gt;&lt;/div&gt;" style="text;whiteSpace=wrap;html=1;fontSize=6;strokeWidth=1;" vertex="1" parent="1">
          <mxGeometry x="905.0000000000002" y="562.5799999999999" width="19" height="21.7" as="geometry" />
        </mxCell>
        <mxCell id="0bNsCw8zncsb32AjO11a-270" value="&lt;div style=&quot;text-align: center;&quot;&gt;&lt;font size=&quot;1&quot;&gt;PC&lt;/font&gt;&lt;/div&gt;" style="text;whiteSpace=wrap;html=1;fontSize=6;strokeWidth=1;" vertex="1" parent="1">
          <mxGeometry x="930.0000000000002" y="562.5799999999999" width="19" height="21.7" as="geometry" />
        </mxCell>
        <mxCell id="0bNsCw8zncsb32AjO11a-271" value="&lt;div style=&quot;text-align: center;&quot;&gt;&lt;font size=&quot;1&quot;&gt;PC&lt;/font&gt;&lt;/div&gt;" style="text;whiteSpace=wrap;html=1;fontSize=6;strokeWidth=1;" vertex="1" parent="1">
          <mxGeometry x="956.0000000000002" y="562.5799999999999" width="19" height="21.7" as="geometry" />
        </mxCell>
        <mxCell id="0bNsCw8zncsb32AjO11a-272" value="&lt;div style=&quot;text-align: center;&quot;&gt;&lt;font size=&quot;1&quot;&gt;PC&lt;/font&gt;&lt;/div&gt;" style="text;whiteSpace=wrap;html=1;fontSize=6;strokeWidth=1;" vertex="1" parent="1">
          <mxGeometry x="881.0000000000002" y="579.88" width="19" height="21.7" as="geometry" />
        </mxCell>
        <mxCell id="0bNsCw8zncsb32AjO11a-273" value="&lt;div style=&quot;text-align: center;&quot;&gt;&lt;font size=&quot;1&quot;&gt;PC&lt;/font&gt;&lt;/div&gt;" style="text;whiteSpace=wrap;html=1;fontSize=6;strokeWidth=1;" vertex="1" parent="1">
          <mxGeometry x="905.0000000000002" y="579.88" width="19" height="21.7" as="geometry" />
        </mxCell>
        <mxCell id="0bNsCw8zncsb32AjO11a-274" value="&lt;div style=&quot;text-align: center;&quot;&gt;&lt;font size=&quot;1&quot;&gt;PC&lt;/font&gt;&lt;/div&gt;" style="text;whiteSpace=wrap;html=1;fontSize=6;strokeWidth=1;" vertex="1" parent="1">
          <mxGeometry x="930.0000000000002" y="579.88" width="19" height="21.7" as="geometry" />
        </mxCell>
        <mxCell id="0bNsCw8zncsb32AjO11a-275" value="&lt;div style=&quot;text-align: center;&quot;&gt;&lt;font size=&quot;1&quot;&gt;PC&lt;/font&gt;&lt;/div&gt;" style="text;whiteSpace=wrap;html=1;fontSize=6;strokeWidth=1;" vertex="1" parent="1">
          <mxGeometry x="956.0000000000002" y="579.88" width="19" height="21.7" as="geometry" />
        </mxCell>
        <mxCell id="0bNsCw8zncsb32AjO11a-276" value="" style="rounded=0;whiteSpace=wrap;html=1;strokeWidth=1;fontSize=8;" vertex="1" parent="1">
          <mxGeometry x="849" y="638.06" width="114.84" height="57" as="geometry" />
        </mxCell>
        <mxCell id="0bNsCw8zncsb32AjO11a-277" value="&lt;div style=&quot;text-align: center;&quot;&gt;&lt;font size=&quot;1&quot;&gt;PC&lt;/font&gt;&lt;/div&gt;" style="text;whiteSpace=wrap;html=1;fontSize=6;strokeWidth=1;" vertex="1" parent="1">
          <mxGeometry x="860.0000000000002" y="637.4" width="19" height="21.7" as="geometry" />
        </mxCell>
        <mxCell id="0bNsCw8zncsb32AjO11a-278" value="&lt;div style=&quot;text-align: center;&quot;&gt;&lt;font size=&quot;1&quot;&gt;PC&lt;/font&gt;&lt;/div&gt;" style="text;whiteSpace=wrap;html=1;fontSize=6;strokeWidth=1;" vertex="1" parent="1">
          <mxGeometry x="884.0000000000002" y="637.4" width="19" height="21.7" as="geometry" />
        </mxCell>
        <mxCell id="0bNsCw8zncsb32AjO11a-279" value="&lt;div style=&quot;text-align: center;&quot;&gt;&lt;font size=&quot;1&quot;&gt;PC&lt;/font&gt;&lt;/div&gt;" style="text;whiteSpace=wrap;html=1;fontSize=6;strokeWidth=1;" vertex="1" parent="1">
          <mxGeometry x="908" y="637.4" width="20" height="31.23" as="geometry" />
        </mxCell>
        <mxCell id="0bNsCw8zncsb32AjO11a-280" value="&lt;div style=&quot;text-align: center;&quot;&gt;&lt;font size=&quot;1&quot;&gt;PC&lt;/font&gt;&lt;/div&gt;" style="text;whiteSpace=wrap;html=1;fontSize=6;strokeWidth=1;" vertex="1" parent="1">
          <mxGeometry x="935.0000000000002" y="637.4" width="19" height="21.7" as="geometry" />
        </mxCell>
        <mxCell id="0bNsCw8zncsb32AjO11a-281" value="&lt;div style=&quot;text-align: center;&quot;&gt;&lt;font size=&quot;1&quot;&gt;PC&lt;/font&gt;&lt;/div&gt;" style="text;whiteSpace=wrap;html=1;fontSize=6;strokeWidth=1;" vertex="1" parent="1">
          <mxGeometry x="860.0000000000002" y="654.2099999999999" width="19" height="21.7" as="geometry" />
        </mxCell>
        <mxCell id="0bNsCw8zncsb32AjO11a-282" value="&lt;div style=&quot;text-align: center;&quot;&gt;&lt;font size=&quot;1&quot;&gt;PC&lt;/font&gt;&lt;/div&gt;" style="text;whiteSpace=wrap;html=1;fontSize=6;strokeWidth=1;" vertex="1" parent="1">
          <mxGeometry x="884.0000000000002" y="654.2099999999999" width="19" height="21.7" as="geometry" />
        </mxCell>
        <mxCell id="0bNsCw8zncsb32AjO11a-283" value="&lt;div style=&quot;text-align: center;&quot;&gt;&lt;font size=&quot;1&quot;&gt;PC&lt;/font&gt;&lt;/div&gt;" style="text;whiteSpace=wrap;html=1;fontSize=6;strokeWidth=1;" vertex="1" parent="1">
          <mxGeometry x="909.0000000000002" y="654.2099999999999" width="19" height="21.7" as="geometry" />
        </mxCell>
        <mxCell id="0bNsCw8zncsb32AjO11a-284" value="&lt;div style=&quot;text-align: center;&quot;&gt;&lt;font size=&quot;1&quot;&gt;PC&lt;/font&gt;&lt;/div&gt;" style="text;whiteSpace=wrap;html=1;fontSize=6;strokeWidth=1;" vertex="1" parent="1">
          <mxGeometry x="935.0000000000002" y="654.2099999999999" width="19" height="21.7" as="geometry" />
        </mxCell>
        <mxCell id="0bNsCw8zncsb32AjO11a-285" value="&lt;div style=&quot;text-align: center;&quot;&gt;&lt;font size=&quot;1&quot;&gt;PC&lt;/font&gt;&lt;/div&gt;" style="text;whiteSpace=wrap;html=1;fontSize=6;strokeWidth=1;" vertex="1" parent="1">
          <mxGeometry x="860.0000000000002" y="671.51" width="19" height="21.7" as="geometry" />
        </mxCell>
        <mxCell id="0bNsCw8zncsb32AjO11a-286" value="&lt;div style=&quot;text-align: center;&quot;&gt;&lt;font size=&quot;1&quot;&gt;PC&lt;/font&gt;&lt;/div&gt;" style="text;whiteSpace=wrap;html=1;fontSize=6;strokeWidth=1;" vertex="1" parent="1">
          <mxGeometry x="884.0000000000002" y="671.51" width="19" height="21.7" as="geometry" />
        </mxCell>
        <mxCell id="0bNsCw8zncsb32AjO11a-287" value="&lt;div style=&quot;text-align: center;&quot;&gt;&lt;font size=&quot;1&quot;&gt;PC&lt;/font&gt;&lt;/div&gt;" style="text;whiteSpace=wrap;html=1;fontSize=6;strokeWidth=1;" vertex="1" parent="1">
          <mxGeometry x="909.0000000000002" y="671.51" width="19" height="21.7" as="geometry" />
        </mxCell>
        <mxCell id="0bNsCw8zncsb32AjO11a-288" value="&lt;div style=&quot;text-align: center;&quot;&gt;&lt;font size=&quot;1&quot;&gt;PC&lt;/font&gt;&lt;/div&gt;" style="text;whiteSpace=wrap;html=1;fontSize=6;strokeWidth=1;" vertex="1" parent="1">
          <mxGeometry x="935.0000000000002" y="671.51" width="19" height="21.7" as="geometry" />
        </mxCell>
        <mxCell id="0bNsCw8zncsb32AjO11a-289" value="" style="endArrow=none;html=1;rounded=0;startArrow=classic;startFill=1;endFill=0;strokeWidth=1;exitX=-0.002;exitY=0.394;exitDx=0;exitDy=0;exitPerimeter=0;" edge="1" parent="1" source="0bNsCw8zncsb32AjO11a-276">
          <mxGeometry width="50" height="50" relative="1" as="geometry">
            <mxPoint x="879" y="586" as="sourcePoint" />
            <mxPoint x="798" y="646" as="targetPoint" />
          </mxGeometry>
        </mxCell>
        <mxCell id="0bNsCw8zncsb32AjO11a-290" value="10G" style="text;html=1;strokeColor=none;fillColor=none;align=center;verticalAlign=middle;whiteSpace=wrap;rounded=0;fontSize=8;" vertex="1" parent="1">
          <mxGeometry x="468" y="372" width="60" height="30" as="geometry" />
        </mxCell>
        <mxCell id="0bNsCw8zncsb32AjO11a-292" value="10G" style="text;html=1;strokeColor=none;fillColor=none;align=center;verticalAlign=middle;whiteSpace=wrap;rounded=0;fontSize=8;" vertex="1" parent="1">
          <mxGeometry x="522" y="384" width="60" height="30" as="geometry" />
        </mxCell>
        <mxCell id="0bNsCw8zncsb32AjO11a-293" value="10G" style="text;html=1;strokeColor=none;fillColor=none;align=center;verticalAlign=middle;whiteSpace=wrap;rounded=0;fontSize=8;" vertex="1" parent="1">
          <mxGeometry x="603.5" y="370" width="60" height="30" as="geometry" />
        </mxCell>
        <mxCell id="0bNsCw8zncsb32AjO11a-294" value="10G" style="text;html=1;strokeColor=none;fillColor=none;align=center;verticalAlign=middle;whiteSpace=wrap;rounded=0;fontSize=8;" vertex="1" parent="1">
          <mxGeometry x="568" y="293" width="60" height="30" as="geometry" />
        </mxCell>
        <mxCell id="0bNsCw8zncsb32AjO11a-295" value="10G" style="text;html=1;strokeColor=none;fillColor=none;align=center;verticalAlign=middle;whiteSpace=wrap;rounded=0;fontSize=8;" vertex="1" parent="1">
          <mxGeometry x="568" y="231" width="60" height="30" as="geometry" />
        </mxCell>
        <mxCell id="0bNsCw8zncsb32AjO11a-297" value="1G" style="text;html=1;strokeColor=none;fillColor=none;align=center;verticalAlign=middle;whiteSpace=wrap;rounded=0;fontSize=8;" vertex="1" parent="1">
          <mxGeometry x="501" y="590.85" width="60" height="30" as="geometry" />
        </mxCell>
        <mxCell id="0bNsCw8zncsb32AjO11a-298" value="1G" style="text;html=1;strokeColor=none;fillColor=none;align=center;verticalAlign=middle;whiteSpace=wrap;rounded=0;fontSize=8;" vertex="1" parent="1">
          <mxGeometry x="593.96" y="554.74" width="60" height="30" as="geometry" />
        </mxCell>
        <mxCell id="0bNsCw8zncsb32AjO11a-299" value="1G" style="text;html=1;strokeColor=none;fillColor=none;align=center;verticalAlign=middle;whiteSpace=wrap;rounded=0;fontSize=8;" vertex="1" parent="1">
          <mxGeometry x="835" y="607.4000000000001" width="60" height="30" as="geometry" />
        </mxCell>
        <mxCell id="0bNsCw8zncsb32AjO11a-300" value="&lt;b&gt;155.230.255x.255&lt;/b&gt;" style="text;html=1;strokeColor=none;fillColor=none;align=center;verticalAlign=middle;whiteSpace=wrap;rounded=0;fontSize=8;" vertex="1" parent="1">
          <mxGeometry x="322" y="661.66" width="72" height="30" as="geometry" />
        </mxCell>
        <mxCell id="0bNsCw8zncsb32AjO11a-301" value="&lt;b&gt;155.230.xxx.xxx&lt;/b&gt;" style="text;html=1;strokeColor=none;fillColor=none;align=center;verticalAlign=middle;whiteSpace=wrap;rounded=0;fontSize=8;" vertex="1" parent="1">
          <mxGeometry x="643.1600000000001" y="713.66" width="72" height="30" as="geometry" />
        </mxCell>
        <mxCell id="0bNsCw8zncsb32AjO11a-302" value="&lt;b&gt;155.230.xxx.xxx&lt;/b&gt;" style="text;html=1;strokeColor=none;fillColor=none;align=center;verticalAlign=middle;whiteSpace=wrap;rounded=0;fontSize=8;" vertex="1" parent="1">
          <mxGeometry x="870.4200000000001" y="695.06" width="72" height="30" as="geometry" />
        </mxCell>
      </root>
    </mxGraphModel>
  </diagram>
</mxfile>
